<svg fill="#000000" xmlns="http://www.w3.org/2000/svg"  viewBox="0 0 128 128" width="256px" height="256px"><path d="M83.3,28.9c-2.5,0-5,0.4-7.4,1.2c-1.7,0.6-3.5,1-5.3,1.3l6.4-8.1c1-1.3,0.8-3.2-0.5-4.2c-1.3-1-3.2-0.8-4.2,0.5L61.6,33.2c-1,1.3-0.8,3.2,0.5,4.2c0.5,0.4,1.2,0.6,1.9,0.6c0,0,0,0,0.1,0c0,0,0,0,0.1,0c0,0,0,0,0,0c4.7,0,9.3-0.8,13.7-2.2c1.8-0.6,3.6-0.9,5.5-0.9c6.2,0,11.7,3.3,14.8,8.3c-5.4-1.9-12.7,1.9-12.1,9.1c0.1,1.6,0.2,3.3,0.2,5.2C86,72.4,83,87.8,76.8,96.4c-2.3,3.2-4.5,4.2-6.6,4.5c-4.7-1.6-10-1.3-14.5,0.9l-0.7,0.4c-1.5,0.7-3.2,1.1-4.8,1.1c-3.6,0-7-1.8-9-4.8l-3.4-5c-8.5-12.8-12.1-28.1-10.2-43.4c1.1-8.7,8.5-15.2,17.2-15.2c1.8,0,3.7,0.3,5.4,0.9c1.6,0.5,3.3-0.3,3.8-1.9c0.5-1.6-0.3-3.3-1.9-3.8c-2.4-0.8-4.8-1.2-7.3-1.2C33,28.9,23,37.7,21.6,49.3C19.5,66,23.5,82.8,32.8,96.8l3.4,5c3.1,4.7,8.3,7.5,14,7.5c2.6,0,5.2-0.6,7.5-1.8l0.7-0.4c3.6-1.8,7.9-1.8,11.5,0l0.6,0.3c2.3,1.2,4.9,1.8,7.5,1.8c5.6,0,10.8-2.8,14-7.5l3.4-5c9.3-13.9,13.3-30.8,11.2-47.4C105,37.7,95,28.9,83.3,28.9z"/></svg>