<svg fill="#000000" xmlns="http://www.w3.org/2000/svg"  viewBox="0 0 100 100" width="200px" height="200px"><path d="M71,27c-1.411,0-2.796,0.432-3.637,0.756C66.346,26.454,63.739,24,58.552,24c-2.692,0-4.584,0.733-6.104,1.322c-0.157,0.061-0.3,0.115-0.447,0.171V20c0-2.757,2.243-5,5-5h4c1.103,0,2-0.897,2-2s-0.897-2-2-2h-4c-4.962,0-9,4.038-9,9v5.493c-0.147-0.056-0.29-0.11-0.447-0.171C46.032,24.733,44.14,24,41.448,24c-5.207,0-7.802,2.449-8.815,3.755C31.792,27.431,30.409,27,29,27c-10.159,0-11,8.271-11,17.486C18,61.412,26.747,87,39.93,87c1.818,0,3.635-0.5,5.409-1.489c3.021,1.971,6.229,2.008,9.323,0.001C56.437,86.5,58.252,87,60.07,87C73.253,87,82,61.412,82,44.486C82,35.271,81.159,27,71,27z M49,20c0-4.411,3.589-8,8-8h4c0.551,0,1,0.449,1,1s-0.449,1-1,1h-4c-3.309,0-6,2.691-6,6v5.833C50.645,25.933,50.313,26,50,26s-0.645-0.067-1-0.167V20z M20,44.486C20,33.994,21.347,29,29,29c1.73,0,3.536,0.886,3.554,0.895c0.052,0.026,0.107,0.027,0.16,0.043C31.586,32.961,31,38.142,31,42.5c0,14.837,6.536,33.864,13.815,40.998C43.195,84.492,41.552,85,39.93,85C28.369,85,20,60.8,20,44.486z M60.07,85c-1.621,0-3.263-0.507-4.883-1.501c7.11-6.958,13.516-25.179,13.803-39.989c0.005-0.276-0.214-0.504-0.49-0.51c-0.319,0.001-0.504,0.214-0.51,0.49c-0.301,15.513-7.352,34.777-14.792,40.417c-0.087,0.066-0.138,0.158-0.167,0.255c-2.081,1.144-4.203,1.091-6.301-0.159l0.073-0.096C39.193,78.14,32,58.017,32,42.5c0-5.986,1.032-11.875,2.4-13.7l-0.027-0.02c0.852-1.009,2.934-2.78,7.075-2.78c2.318,0,3.946,0.631,5.382,1.188C47.909,27.605,48.928,28,50,28s2.091-0.395,3.17-0.812C54.606,26.631,56.234,26,58.552,26c4.016,0,6.103,1.683,7.002,2.702c0.015,0.033,0.024,0.068,0.047,0.098c0.707,0.943,1.344,2.996,1.794,5.78c0.04,0.246,0.252,0.42,0.493,0.42c0.026,0,0.053-0.002,0.08-0.006c0.273-0.044,0.458-0.301,0.414-0.573c-0.226-1.397-0.582-3.095-1.1-4.481c0.055-0.016,0.111-0.018,0.164-0.044C67.464,29.886,69.27,29,71,29c7.653,0,9,4.994,9,15.486C80,60.8,71.631,85,60.07,85z"/><path d="M39.002 32.575c-.504-.146-1.036-.079-1.494.188-.491.286-.854.782-.993 1.362C36.168 35.563 36 37.322 36 39.5c0 .636.019 1.295.055 1.961.062 1.144.949 2.039 2.019 2.039l.125-.004c1.111-.073 1.962-1.1 1.896-2.29-.031-.581-.048-1.154-.048-1.706 0-1.807.126-3.211.387-4.291C40.712 34.064 40.069 32.883 39.002 32.575zM39.463 34.975c-.279 1.158-.415 2.638-.415 4.525 0 .569.017 1.162.05 1.761.035.645-.397 1.2-.962 1.237L38.074 43v-.5c-.539 0-.987-.48-1.021-1.094C37.018 40.759 37 40.118 37 39.5c0-2.099.16-3.78.488-5.141.076-.316.267-.583.523-.731.145-.084.304-.127.464-.127.083 0 .167.012.25.036C39.285 33.697 39.616 34.343 39.463 34.975zM68.388 39.001c-.276.015-.487.251-.471.527.037.657.061 1.319.074 1.981C67.996 41.782 68.218 42 68.49 42c.003 0 .006 0 .009 0 .276-.005.496-.233.491-.509-.013-.675-.038-1.35-.076-2.019C68.899 39.197 68.655 38.984 68.388 39.001zM68.265 38c.016 0 .031 0 .047-.002.275-.025.477-.27.451-.544-.032-.341-.067-.678-.105-1.01-.031-.275-.288-.476-.553-.44-.274.031-.472.279-.44.553.037.326.071.656.103.99C67.792 37.806 68.01 38 68.265 38z"/></svg>