<svg fill="#000000" xmlns="http://www.w3.org/2000/svg"  viewBox="0 0 64 64" width="64px" height="64px"><path d="M7 52c-.552 0-1 .448-1 1v2c0 .552.448 1 1 1s1-.448 1-1v-2C8 52.448 7.552 52 7 52zM12 52c-.552 0-1 .448-1 1v2c0 .552.448 1 1 1s1-.448 1-1v-2C13 52.448 12.552 52 12 52zM17 52c-.552 0-1 .448-1 1v2c0 .552.448 1 1 1s1-.448 1-1v-2C18 52.448 17.552 52 17 52z"/><path d="M63.74,16.076c-0.523-3.138-2.694-5.792-5.666-6.928c-5.77-2.205-11.85-3.241-17.915-3.132l-15.883,0C18.018,5.854,11.887,6.895,6.038,9.116L5.94,9.153c-2.98,1.131-5.158,3.789-5.682,6.934c-0.195,1.17-0.018,2.35,0.513,3.411l0.701,1.402C1.817,21.59,2,22.363,2,23.135V55c0,2.757,2.243,5,5,5h18h14h18c2.757,0,5-2.243,5-5V23.135c0-0.772,0.183-1.545,0.528-2.236l0.701-1.402C63.76,18.436,63.937,17.256,63.74,16.076z M7,58c-1.654,0-3-1.346-3-3V23.135C4,23.09,3.993,23.045,3.992,23H16c0.552,0,1-0.448,1-1s-0.448-1-1-1H3.655c-0.109-0.341-0.234-0.676-0.394-0.995L2.56,18.603c-0.34-0.681-0.454-1.437-0.329-2.188c0.408-2.446,2.101-4.513,4.422-5.394l0.098-0.037c5.602-2.127,11.49-3.126,17.498-2.968h3.07c-1.102,0.33-2.198,0.688-3.281,1.1L23.94,9.153c-2.98,1.131-5.158,3.789-5.682,6.934c-0.195,1.17-0.018,2.35,0.513,3.411l0.701,1.402C19.817,21.59,20,22.363,20,23.135V55c0,1.13,0.391,2.162,1.026,3H7z M61.44,18.603l-0.701,1.402C60.255,20.972,60,22.054,60,23.135V55c0,1.654-1.346,3-3,3H39H25c-1.654,0-3-1.346-3-3V23.135c0-1.081-0.255-2.164-0.739-3.13l-0.701-1.402c-0.34-0.681-0.454-1.437-0.329-2.188c0.408-2.446,2.101-4.513,4.422-5.394l0.098-0.037c4.971-1.888,10.178-2.87,15.398-2.968H41c0.031,0,0.058-0.015,0.088-0.018c5.514,0.009,11.028,1.014,16.273,3.019c2.311,0.883,4,2.947,4.408,5.398C61.894,17.166,61.78,17.922,61.44,18.603z"/><path d="M32 30h-2c-.552 0-1 .448-1 1s.448 1 1 1h2c.552 0 1-.448 1-1S32.552 30 32 30zM41 18c0-.552-.448-1-1-1h-2c-.552 0-1 .448-1 1s.448 1 1 1h2C40.552 19 41 18.552 41 18zM42 36h-2c-.552 0-1 .448-1 1s.448 1 1 1h2c.552 0 1-.448 1-1S42.552 36 42 36zM44 25h-2c-.552 0-1 .448-1 1s.448 1 1 1h2c.552 0 1-.448 1-1S44.552 25 44 25zM36 49h-2c-.552 0-1 .448-1 1s.448 1 1 1h2c.552 0 1-.448 1-1S36.552 49 36 49zM53 23h-2c-.552 0-1 .448-1 1s.448 1 1 1h2c.552 0 1-.448 1-1S53.552 23 53 23zM51 45h-2c-.552 0-1 .448-1 1s.448 1 1 1h2c.552 0 1-.448 1-1S51.552 45 51 45z"/></svg>