<svg fill="#000000" xmlns="http://www.w3.org/2000/svg"  viewBox="0 0 100 100" width="100px" height="100px"><path fill="none" stroke="#000000" stroke-linejoin="round" stroke-miterlimit="10" stroke-width="2" d="M85,84H15	c-2.209,0-4-1.791-4-4V52c0-2.209,1.791-4,4-4h70c2.209,0,4,1.791,4,4v28C89,82.209,87.209,84,85,84z"/><path fill="none" stroke="#000000" stroke-linejoin="round" stroke-miterlimit="10" stroke-width="2" d="M34.5,48	C27.044,48,21,40.837,21,32s6.044-16,13.5-16H65"/><path fill="none" stroke="#000000" stroke-linejoin="round" stroke-miterlimit="10" stroke-width="2" d="M52,32h27	c0-8.837-6.044-16-13.5-16S52,23.163,52,32s6.044,16,13.5,16"/><path fill="none" stroke="#000000" stroke-linejoin="round" stroke-miterlimit="10" d="M40,48.5c-6.904,0-12.5-7.163-12.5-16	s5.596-16,12.5-16"/><path fill="none" stroke="#000000" stroke-linejoin="round" stroke-miterlimit="10" d="M51.5,48.5c-6.351,0-12-7.163-12-16	s5.149-16,11.5-16"/><path fill="none" stroke="#000000" stroke-linecap="round" stroke-linejoin="round" stroke-miterlimit="10" d="M45.595,30.5	c-0.056,0.657-0.095,1.321-0.095,2c0,8.837,5.925,16,12,16"/><path fill="none" stroke="#000000" stroke-linecap="round" stroke-linejoin="round" stroke-miterlimit="10" d="M48.526,21.5	c-0.768,1.178-1.411,2.525-1.906,4"/><path fill="none" stroke="#000000" stroke-linecap="round" stroke-linejoin="round" stroke-miterlimit="10" d="M51.179,18.5	c-0.374,0.301-0.73,0.64-1.075,1"/><path fill="none" stroke="#000000" stroke-linecap="round" stroke-linejoin="round" stroke-miterlimit="10" d="M45.5,16.5	c-6.374,0-11.573,6.632-11.962,15"/><path fill="none" stroke="#000000" stroke-linecap="round" stroke-linejoin="round" stroke-miterlimit="10" d="M36.801,43.5	c2.187,3.073,5.271,5,8.699,5"/><path fill="none" stroke="#000000" stroke-linecap="round" stroke-linejoin="round" stroke-miterlimit="10" d="M35.118,40.5	c0.147,0.339,0.296,0.677,0.461,1"/><path fill="none" stroke="#000000" stroke-linecap="round" stroke-linejoin="round" stroke-miterlimit="10" d="M33.718,35.5	c0.148,1.04,0.371,2.042,0.662,3"/></svg>