<svg fill="#000000" xmlns="http://www.w3.org/2000/svg"  viewBox="0 0 32 32" width="32px" height="32px"><path d="M24 12A1 1 0 1 0 24 14 1 1 0 1 0 24 12zM20 15A1 1 0 1 0 20 17 1 1 0 1 0 20 15z"/><path fill="none" stroke="#000000" stroke-linecap="round" stroke-linejoin="round" stroke-miterlimit="10" stroke-width="2" d="M27,10.291C27,6.894,26.265,5,24.631,5c-1.381,0-2.154,1.764-3.276,4.015C20.596,9.088,20,9.721,20,10.5c0,0.256,0.07,0.493,0.183,0.704c-0.381,0.646-0.809,1.297-1.3,1.932c-0.403,0.183-0.707,0.539-0.825,0.973c-0.126,0.137-0.246,0.275-0.379,0.409c-0.488,0.488-1.136,0.996-1.866,1.516C15.712,16.012,15.608,16,15.5,16c-0.739,0-1.349,0.535-1.474,1.238c-0.958,0.615-1.973,1.242-2.971,1.871C10.883,19.04,10.696,19,10.5,19c-0.81,0-1.465,0.643-1.494,1.445C6.755,21.979,5,23.493,5,24.859C5,26.179,6.072,27,9.052,27c0.738,0,1.62-0.091,2.586-0.275C11.882,26.897,12.178,27,12.5,27c0.583,0,1.083-0.336,1.331-0.822c1.043-0.319,2.131-0.732,3.219-1.254C17.193,24.969,17.342,25,17.5,25c0.69,0,1.265-0.469,1.44-1.103c0.912-0.553,1.8-1.186,2.634-1.904c0.75-0.037,1.349-0.622,1.413-1.365c0.757-0.819,1.443-1.724,2.023-2.723C25.586,17.696,26,17.148,26,16.5c0-0.163-0.033-0.317-0.081-0.464C26.599,14.345,27,12.439,27,10.291z"/><path d="M19 19A1 1 0 1 0 19 21 1 1 0 1 0 19 19zM13 22A1 1 0 1 0 13 24 1 1 0 1 0 13 22z"/></svg>