<svg fill="#000000" xmlns="http://www.w3.org/2000/svg"  viewBox="0 0 100 100" width="200px" height="200px"><path d="M27.552,88C18.437,87.988,11.012,80.52,11,71.35c0-13.277,7.368-15.925,16.695-19.276 c5.378-1.668,10.409-4.133,14.996-7.34c3.006-2.492,5.87-5.327,8.448-8.378c2.887-3.195,5.842-6.464,8.861-8.843 c0.477-0.376,2.564,0.594,2.564,0.594c-3.322,2.267-6.676,5.978-9.919,9.565c-2.632,3.116-5.581,6.035-8.742,8.651 c-4.822,3.375-10.039,5.932-15.573,7.646C19.115,57.281,13,59.479,13,71.349C13.01,79.417,19.539,85.99,27.554,86 c11.385,0,23.969-6.399,34.524-17.558c7.938-8.404,13.796-18.495,16.073-27.683c0,0,1.814,0.986,1.746,1.24 c-2.484,9.305-8.415,19.398-16.365,27.816C52.6,81.373,39.486,88,27.552,88z"/><path fill="none" stroke="#000000" stroke-linecap="round" stroke-miterlimit="10" d="M81.059,43	c-2.582-1.885-4.362-4.68-4.982-7.827v-2.718l-1.728,2.044c-1.9,1.8-4.308,2.964-6.893,3.331c-0.589-2.793-0.268-5.702,0.915-8.297	l0.752-1.574l-1.891,0.245c-0.674,0.088-1.354,0.129-2.033,0.123c-2.469-0.056-4.908-0.562-7.198-1.492	c2.392-3.699,6.469-5.947,10.858-5.988l0,0c2.399,0.139,4.77,0.585,7.056,1.328l0.529,0.184l0.549-0.368	c3.056-2.567,5.508-5.459,7.625-8.849L86,13.715c-1.061,3.772-2.584,7.396-4.534,10.79l-0.244,0.388l0.264,0.94	c1.038,3.135,1.673,6.39,1.891,9.687v0.225C83.628,38.381,82.789,41.004,81.059,43z"/><path fill="none" stroke="#000000" stroke-linecap="round" stroke-miterlimit="10" d="M28,62.099	c-0.498,0.14-0.998,0.273-1.5,0.401"/><path fill="none" stroke="#000000" stroke-linecap="round" stroke-miterlimit="10" d="M38,58.378c-2.268,1.067-4.604,2.002-7,2.801"/><path fill="none" stroke="#000000" stroke-linecap="round" stroke-miterlimit="10" d="M60.5,40.5	C55.13,47.319,48.493,52.842,41,56.867"/></svg>