<svg fill="#000000" xmlns="http://www.w3.org/2000/svg"  viewBox="0 0 128 128" width="64px" height="64px"><path d="M122.8 110.4c4.5-19.5 1.6-39.6-1.2-58.9l-.3-2.2c-.2-1.6-1.8-2.8-3.4-2.5-1.6.2-2.8 1.8-2.5 3.4l.3 2.2c2.7 19 5.6 38.6 1.2 57l-.2.8c-.2.7-.1 1.4.2 2.1.6 1.2 1.4 2.2 2.3 3.3.8 1 2 2.4 2 3.2 0 1.3-1 2.3-2.3 2.3H71c-1.7 0-3 1.3-3 3s1.3 3 3 3h47.7c4.6 0 8.3-3.7 8.3-8.3 0-2.9-1.8-5.2-3.3-7C123.4 111.3 123.1 110.8 122.8 110.4zM84.3 36.3c1.6 0 2.9-1.2 3-2.8.1-1.7-1.1-3.1-2.8-3.2L52.2 28c-1.7-.1-3.1 1.1-3.2 2.8s1.1 3.1 2.8 3.2l32.3 2.3C84.2 36.3 84.3 36.3 84.3 36.3z"/><path d="M112.6 32.2l-10.4-.7c-1.7-.1-3.1 1.1-3.2 2.8s1.1 3.1 2.8 3.2l10.4.7c.3 0 .6 0 .8 0 3 0 6-1.2 8.2-3.2 2.4-2.3 3.8-5.5 3.8-8.8 0-6.7-5.4-12.1-12.1-12.1h-5C91 3.3 70.3.7 51.1 7 49.8 7.4 49 8.5 49 9.8l0 7.3c0 .8.3 1.6.9 2.1.6.6 1.3.9 2.1.9h0 61c3.3 0 6.1 2.7 6.1 6.1 0 1.7-.7 3.3-1.9 4.4C115.9 31.8 114.3 32.4 112.6 32.2zM13 14v20c0 1.7 1.3 3 3 3s3-1.3 3-3V14c0-1.7-1.3-3-3-3S13 12.3 13 14zM37 14v20c0 1.7 1.3 3 3 3s3-1.3 3-3V14c0-1.7-1.3-3-3-3S37 12.3 37 14z"/><path d="M4 98c-1.7 0-3 1.3-3 3v2c0 10.5 8.5 19 19 19h5v2c0 1.7 1.3 3 3 3s3-1.3 3-3v-2h5c10.5 0 19-8.5 19-19v-3c0-1.7-1.3-3-3-3s-3 1.3-3 3v3c0 7.2-5.8 13-13 13h-5V98h5c10.5 0 19-8.5 19-19v-3c0-1.7-1.3-3-3-3s-3 1.3-3 3v3c0 7.2-5.8 13-13 13h-5V74h5c10.5 0 19-8.5 19-19v-8c0-1.7-1.3-3-3-3h-8c-5 0-9.6 2-13 5.2V4c0-1.7-1.3-3-3-3s-3 1.3-3 3v45.2C21.6 46 17 44 12 44H4c-1.7 0-3 1.3-3 3v8c0 10.5 8.5 19 19 19h5v18h-5c-7.2 0-13-5.8-13-13v-3c0-1.7-1.3-3-3-3s-3 1.3-3 3v3c0 10.5 8.5 19 19 19h5v18h-5c-7.2 0-13-5.8-13-13v-2C7 99.3 5.7 98 4 98zM31 63c0-7.2 5.8-13 13-13h5v5c0 7.2-5.8 13-13 13h-5V63zM20 68c-7.2 0-13-5.8-13-13v-5h5c7.2 0 13 5.8 13 13v5H20zM56 121A3 3 0 1 0 56 127 3 3 0 1 0 56 121z"/></svg>