<svg fill="#000000" xmlns="http://www.w3.org/2000/svg"  viewBox="0 0 16 16" width="32px" height="32px"><path d="M 5 3 L 5 6 L 6 6 L 6 3 L 5 3 z M 3 4 L 3 7 L 4 7 L 4 4 L 3 4 z M 7 4 L 7 7 L 8 7 L 8 4 L 7 4 z M 16 7 C 12.773846 7 10.694062 7.8712746 10.402344 8 L 0.5 8 A 0.50005 0.50005 0 0 0 0.025390625 8.6582031 L 0.796875 10.974609 C 1.0003864 11.58664 1.5775248 12 2.2207031 12 L 8.7792969 12 C 9.4229806 12 9.9998451 11.585944 10.203125 10.974609 L 10.902344 8.8769531 C 11.344781 8.6899086 13.147979 8 16 8 L 16 7 z M 1.1933594 9 L 9.8066406 9 L 9.2539062 10.658203 C 9.1851861 10.864869 8.9976132 11 8.7792969 11 L 2.2207031 11 C 2.0038814 11 1.8145822 10.864172 1.7460938 10.658203 L 1.1933594 9 z"/></svg>