<?xml version="1.0"?><svg fill="#000000" xmlns="http://www.w3.org/2000/svg"  viewBox="0 0 128 128" width="128px" height="128px">    <path d="M 69.185547 36.447266 C 55.644046 36.510327 41.660156 42.441406 32.800781 51.300781 C 19.300781 64.800781 12.499219 90.3 23.199219 108 C 20.899219 111.8 21.399219 116.90078 24.699219 120.30078 C 27.999219 123.60078 33.1 124.10078 37 121.80078 C 43 125.40078 49.999609 127.09961 57.099609 127.09961 C 57.799609 127.09961 58.499219 127.1 59.199219 127 L 59.699219 127 L 98 127 C 99.7 127 101 125.7 101 124 C 101 122.3 99.7 121 98 121 L 81.300781 121 C 86.000781 118.6 90.199219 115.59922 93.699219 112.19922 C 107.19922 98.699219 113.90039 73.299219 103.40039 55.699219 C 104.70039 53.999219 105.5 51.799609 105.5 49.599609 C 105.5 46.899609 104.4 44.4 102.5 42.5 C 98.9 38.9 93.300781 38.599609 89.300781 41.599609 C 83.250781 37.990234 76.278714 36.414233 69.185547 36.447266 z M 69.542969 42.570312 C 76.426563 42.617188 82.9375 44.337891 88 47.900391 C 89.2 48.700391 90.800781 48.599609 91.800781 47.599609 L 92.599609 46.800781 C 94.199609 45.200781 96.700781 45.200781 98.300781 46.800781 C 99.100781 47.600781 99.5 48.599609 99.5 49.599609 C 99.5 50.599609 99.100781 51.700391 98.300781 52.400391 L 97.5 53.199219 C 96.5 54.199219 96.299219 55.8 97.199219 57 C 98.899219 59.5 100.19961 62.300781 101.09961 65.300781 C 99.399609 65.700781 97.799609 67.199609 97.099609 69.599609 C 97.099609 69.699609 89.699609 103.9 50.099609 114.5 C 47.499609 115.2 46.000391 117.29922 45.900391 119.19922 C 44.200391 118.59922 42.5 117.89961 41 117.09961 C 41.6 115.59961 41.900781 113.89922 41.800781 112.19922 C 41.600781 110.59922 40.2 109.3 38.5 109.5 C 36.9 109.7 35.600781 111.10078 35.800781 112.80078 C 35.900781 114.00078 35.499609 115.2 34.599609 116 C 32.999609 117.6 30.500391 117.6 28.900391 116 C 27.300391 114.4 27.300391 111.90078 28.900391 110.30078 L 29 110.19922 C 30 109.19922 30.200781 107.60039 29.300781 106.40039 C 19.800781 92.900391 23.4 69.1 37 55.5 C 45.5625 47.0625 58.070312 42.492188 69.542969 42.570312 z M 112.90039 121.07422 C 112.12539 121.07422 111.35078 121.35039 110.80078 121.90039 L 110.40039 122.30078 C 110.30039 122.50078 110.19961 122.60078 110.09961 122.80078 C 109.99961 123.00078 110.00039 123.20039 109.90039 123.40039 C 109.90039 123.60039 109.80078 123.8 109.80078 124 C 109.80078 124.8 110.09922 125.59961 110.69922 126.09961 L 111.09961 126.5 C 111.49961 126.6 111.70078 126.70078 111.80078 126.80078 C 112.00078 126.90078 112.20039 126.9 112.40039 127 C 112.60039 127 112.8 127.09961 113 127.09961 C 113.2 127.09961 113.39961 127.1 113.59961 127 C 113.79961 127 113.99922 126.90078 114.19922 126.80078 C 114.39922 126.70078 114.59922 126.6 114.69922 126.5 C 114.89922 126.4 114.99961 126.29961 115.09961 126.09961 C 115.69961 125.49961 116 124.8 116 124 C 116 123.8 116.00039 123.60039 115.90039 123.40039 C 115.90039 123.20039 115.79922 123.00078 115.69922 122.80078 C 115.59922 122.60078 115.50039 122.50078 115.40039 122.30078 C 115.30039 122.10078 115.2 122.00039 115 121.90039 C 114.45 121.35039 113.67539 121.07422 112.90039 121.07422 z"/></svg>