<?xml version="1.0"?><svg fill="#000000" xmlns="http://www.w3.org/2000/svg"  viewBox="0 0 128 128" width="64px" height="64px">    <path d="M114,64c0-2.3-0.2-4.5-0.4-6.7c0,0,0,0,0,0c-1.1-9.1,0.2-16.2,3.5-19l1.4-1.2c0.7-0.6,1.1-1.5,1-2.4s-0.5-1.7-1.2-2.3 c-6.1-4.7-11.8-6.3-17-4.7c-1.7,0.5-3.3,1.4-4.6,2.4c-0.7-0.7-1.4-1.4-2.2-2c1-1.3,0.8-3.1-0.4-4.2c-5-4.2-9.2-6-14.8-7.9 c-1.6-0.5-3.3,0.3-3.8,1.9c-0.5,1.6,0.3,3.3,1.9,3.8c5.7,1.9,8.8,3.5,12.6,6.7c-1.9,1-3.4,2.2-4.3,3.6l0,0.1 c-2.5,0.4-4.6,1.1-6.5,1.9c-0.1-0.2-0.3-0.4-0.4-0.6c-2.2-2.1-4.8-3.5-6.7-4.2c0.1-5.4-2.5-9.8-7.4-12.5c-4.1-2.2-9-2.8-13.8-1.6 c-5.9,1.5-11.4,4-16.4,7.5c-1.4,0.9-1.7,2.8-0.7,4.2c1,1.4,2.8,1.7,4.2,0.7c4.4-3.1,9.2-5.3,14.4-6.6c3.3-0.8,6.6-0.5,9.4,1 c3.5,1.9,4.8,4.8,4.2,8.9c-0.2,1.6,0.8,3,2.3,3.4c0,0,3.2,0.8,5.7,2.8c-1.7,1.4-3.1,2.8-4.1,4.2c-3.4,4.6-4.6,9.7-4.8,14.3 c-3.1,0.9-5.6,2.2-7.7,3.7c0.5-4.5-0.3-8.5-2.5-11.9c-4.7-7.4-14.4-9.7-18.1-10.3c-3.8-6.1-8.3-9.4-13.4-9.9 c-8.1-0.8-14.2,6.1-14.4,6.4c-0.6,0.7-0.9,1.6-0.7,2.5C8.5,37,9,37.8,9.9,38.2l3.5,1.8c2.6,1.3,3.8,4.5,2.6,7.2c0,0,0,0,0,0 c0,0.1-0.1,0.1-0.1,0.2C13.9,52.7,13,58.3,13,64c0,27.8,22.7,50.5,50.5,50.5S114,91.8,114,64z M53.5,101.5c-0.2,0-0.4,0-0.7,0 c-2.9,0-4.4,2.2-4.4,4.4C31.3,99.7,19,83.3,19,64c0-5,0.8-9.8,2.4-14.5c2.4-5.4,0.3-11.7-4.8-14.6c1.7-1.1,3.9-2,6.2-1.8 c3.4,0.3,6.6,3.1,9.6,8.2c0.5,0.8,1.3,1.4,2.3,1.5c0.1,0,11,1.2,15.2,7.8C52,53.7,52.1,58,50.4,63c-0.4,1-0.1,2.1,0.6,2.9 c-1.9,3-3,6.1-3.6,9.1c-1.1,5.3,2.2,10,6.8,11.5c0.1,0.9,0.3,1.5,0.3,1.6c0.3,1.4,1.6,2.3,2.9,2.3c0.2,0,0.5,0,0.7-0.1 c1.6-0.4,2.6-2,2.2-3.6c0-0.1-2.1-9,2.3-14.6c2.6-3.3,7.1-5,13.4-5c0.9,0,1.8-0.4,2.4-1.2c0.6-0.8,0.7-1.7,0.5-2.7 c0-0.1-2.5-8.8,1.5-14.2c2.2-3,6.2-4.5,11.9-4.5c1.3,0,2.4-0.8,2.8-2.1c0-0.1,2.6-7.4,8-9c2.5-0.8,5.4-0.2,8.6,1.7 c-4.6,5.3-4.9,14-4.4,20.2c-2.4-1.7-6.4-0.3-6.5,3.3c0,0,0,0,0,0.1C98.4,82.7,78.1,101.5,53.5,101.5z"/></svg>