<svg fill="#000000" xmlns="http://www.w3.org/2000/svg"  viewBox="0 0 32 32" width="64px" height="64px"><path d="M 13.640625 3.015625 C 13.320132 3.0268 12.998565 3.0515863 12.677734 3.0898438 C 9.8609934 3.4257267 7.1004785 4.6937861 4.90625 6.8691406 C 0.71591522 11.023432 -0.0340214 17.20231 2.6289062 21.933594 C 1.6977345 23.191787 1.7655629 24.973866 2.9101562 26.109375 C 4.0574123 27.247526 5.8393391 27.31074 7.1054688 26.382812 C 9.186528 27.537282 11.52159 28.106513 13.869141 27.958984 C 15.616439 29.2441 17.721716 30 20 30 C 26.117484 30 31 24.566303 31 18 L 31 17 L 30 17 L 26.011719 17 C 26.460089 14.265485 25.984938 11.45088 24.605469 9.0175781 C 25.499298 7.7616574 25.425321 6.0100991 24.294922 4.8886719 C 23.146596 3.7494597 21.360044 3.686443 20.09375 4.6171875 C 18.103847 3.5138587 15.884076 2.9374 13.640625 3.015625 z M 13.802734 5.0078125 C 15.884362 4.9319208 17.95022 5.457721 19.707031 6.5859375 L 20.382812 7.0195312 L 21.119141 6.2871094 L 21.119141 6.2890625 C 21.601108 5.8115223 22.38184 5.8096602 22.884766 6.3085938 C 23.388404 6.8082344 23.387955 7.5578795 22.90625 8.0351562 L 22.90625 8.0371094 L 22.160156 8.7773438 L 22.605469 9.4609375 C 24.05627 11.680047 24.515786 14.389174 23.990234 17 L 9 17 L 9 18 C 9 21.022564 10.042519 23.796842 11.755859 25.919922 C 10.247868 25.7408 8.790008 25.24176 7.4980469 24.412109 L 6.8222656 23.978516 L 6.0839844 24.710938 C 5.6019056 25.18711 4.8208037 25.18791 4.3183594 24.689453 C 3.8147215 24.189812 3.8151739 23.440167 4.296875 22.962891 L 5.0429688 22.220703 L 4.5976562 21.539062 C 1.9992479 17.56444 2.564816 12.006447 6.3144531 8.2890625 C 8.423571 6.1980864 11.126356 5.1053875 13.802734 5.0078125 z M 11.181641 19 L 16.826172 19 C 15.483906 20.565995 14.141011 22.131495 12.798828 23.697266 C 11.922197 22.333993 11.346873 20.768703 11.181641 19 z M 23.173828 19 L 28.818359 19 C 28.653127 20.768703 28.077803 22.333993 27.201172 23.697266 C 25.858989 22.131495 24.516094 20.565995 23.173828 19 z M 19 19.537109 L 19 27.777344 C 17.098349 27.532493 15.367219 26.720014 14.009766 25.359375 C 15.673301 23.418795 17.336592 21.477659 19 19.537109 z M 21 19.537109 C 22.663408 21.477659 24.326699 23.418795 25.990234 25.359375 C 24.632781 26.720014 22.901651 27.532493 21 27.777344 L 21 19.537109 z"/></svg>