<svg fill="#000000" xmlns="http://www.w3.org/2000/svg"  viewBox="0 0 80 80" width="160px" height="160px"><path d="M 26 7 A 1.0001 1.0001 0 0 0 25 8 L 25 13.644531 C 22.104361 17.183921 19.208245 20.722171 16.3125 24.261719 A 1.0001 1.0001 0 0 0 16.123047 24.509766 A 1.0001 1.0001 0 0 0 16.101562 24.546875 A 1.0001 1.0001 0 0 0 16 25.25 L 16 72 A 1.0001 1.0001 0 0 0 17 73 L 47.832031 73 A 1.0001 1.0001 0 0 0 48.164062 73 L 64 73 A 1.0001 1.0001 0 0 0 65 72 L 65 25 A 1.0001 1.0001 0 0 0 64.808594 24.412109 C 62.2055 20.832978 59.603085 17.254918 57 13.675781 L 57 8 A 1.0001 1.0001 0 0 0 56 7 L 26 7 z M 27 9 L 55 9 L 55 13.675781 C 53.124932 16.254669 51.248342 18.832733 49.373047 21.412109 C 48.674239 22.37333 47.974718 23.335003 47.275391 24.296875 A 1.0001 1.0001 0 0 0 47.271484 24.300781 A 1.0001 1.0001 0 0 0 47.085938 24.582031 A 1.0001 1.0001 0 0 0 47.0625 24.638672 A 1.0001 1.0001 0 0 0 47 25.195312 L 47 31 L 47 71 L 18 71 L 18 26 C 18.55 26 19 25.55 19 25 C 19 24.772321 18.91065 24.570922 18.78125 24.402344 C 21.415029 21.183162 24.047774 17.963586 26.681641 14.744141 A 1.0001 1.0001 0 0 0 26.962891 14.283203 A 1.0001 1.0001 0 0 0 27.005859 14.027344 C 27.021342 14.564074 27.459698 15 28 15 C 28.55 15 29 14.55 29 14 C 29 13.45 28.55 13 28 13 C 27.461691 13 27.024428 13.432803 27.005859 13.966797 A 1.0001 1.0001 0 0 0 27 13.876953 L 27 9 z M 32 13 C 31.45 13 31 13.45 31 14 C 31 14.55 31.45 15 32 15 C 32.55 15 33 14.55 33 14 C 33 13.45 32.55 13 32 13 z M 36 13 C 35.45 13 35 13.45 35 14 C 35 14.55 35.45 15 36 15 C 36.55 15 37 14.55 37 14 C 37 13.45 36.55 13 36 13 z M 40 13 C 39.45 13 39 13.45 39 14 C 39 14.55 39.45 15 40 15 C 40.55 15 41 14.55 41 14 C 41 13.45 40.55 13 40 13 z M 44 13 C 43.45 13 43 13.45 43 14 C 43 14.55 43.45 15 44 15 C 44.55 15 45 14.55 45 14 C 45 13.45 44.55 13 44 13 z M 48 13 C 47.45 13 47 13.45 47 14 C 47 14.55 47.45 15 48 15 C 48.55 15 49 14.55 49 14 C 49 13.45 48.55 13 48 13 z M 52 13 C 51.45 13 51 13.45 51 14 C 51 14.55 51.45 15 52 15 C 52.55 15 53 14.55 53 14 C 53 13.45 52.55 13 52 13 z M 56 15.699219 C 58.333495 18.907642 60.6664 22.115612 63 25.324219 L 63 71 L 49 71 L 49 31 L 49 25.324219 C 49.649355 24.431177 50.299528 23.538146 50.949219 22.644531 A 1.0001 1.0001 0 0 0 50.990234 22.587891 C 52.659695 20.291628 54.330013 17.995613 56 15.699219 z M 22 24 C 21.45 24 21 24.45 21 25 C 21 25.55 21.45 26 22 26 C 22.55 26 23 25.55 23 25 C 23 24.45 22.55 24 22 24 z M 26 24 C 25.45 24 25 24.45 25 25 C 25 25.55 25.45 26 26 26 C 26.55 26 27 25.55 27 25 C 27 24.45 26.55 24 26 24 z M 30 24 C 29.45 24 29 24.45 29 25 C 29 25.55 29.45 26 30 26 C 30.55 26 31 25.55 31 25 C 31 24.45 30.55 24 30 24 z M 34 24 C 33.45 24 33 24.45 33 25 C 33 25.55 33.45 26 34 26 C 34.55 26 35 25.55 35 25 C 35 24.45 34.55 24 34 24 z M 38 24 C 37.45 24 37 24.45 37 25 C 37 25.55 37.45 26 38 26 C 38.55 26 39 25.55 39 25 C 39 24.45 38.55 24 38 24 z M 42 24 C 41.684272 24 41.412127 24.156347 41.228516 24.386719 L 41.199219 24.402344 L 41.191406 24.443359 C 41.079651 24.604734 41 24.789968 41 25 C 41 25.085688 41.028306 25.162677 41.048828 25.242188 L 41.041016 25.283203 L 41.060547 25.304688 C 41.154258 25.590867 41.364941 25.819821 41.644531 25.927734 L 41.652344 25.9375 L 42 26 C 42.315728 26 42.587873 25.843653 42.771484 25.613281 L 42.800781 25.597656 L 42.808594 25.556641 C 42.920349 25.395266 43 25.210032 43 25 C 43 24.914312 42.971694 24.837323 42.951172 24.757812 L 42.958984 24.716797 L 42.939453 24.695312 C 42.845742 24.409133 42.635059 24.180179 42.355469 24.072266 L 42.347656 24.0625 L 42 24 z M 46 24 L 45.199219 24.402344 L 45.041016 25.283203 L 45.652344 25.9375 L 46 26 L 46.800781 25.597656 L 46.958984 24.716797 L 46.347656 24.0625 L 46 24 z"/></svg>