<svg fill="#000000" xmlns="http://www.w3.org/2000/svg"  viewBox="0 0 50 50" width="50px" height="50px"><path fill="none" stroke="#000000" stroke-linecap="round" stroke-linejoin="round" stroke-miterlimit="10" stroke-width="2" d="M17 7L29 7"/><path fill="none" stroke="#000000" stroke-linejoin="round" stroke-miterlimit="10" stroke-width="2" d="M20 7L20 3 26 3 26 7"/><path fill="none" stroke="#000000" stroke-linecap="round" stroke-linejoin="round" stroke-miterlimit="10" stroke-width="2" d="M35.082,26.055c0.126,0.009,0.251,0.022,0.38,0.022c3.059,0,5.539-2.48,5.539-5.538S38.521,15,35.461,15c-2.558,0-4.691,1.74-5.323,4.098"/><path fill="none" stroke="#000000" stroke-linecap="round" stroke-linejoin="round" stroke-miterlimit="10" stroke-width="2" d="M28,14V7H18c0,0,0,1.307,0,7S8,26.308,8,34.368S13.769,47,13.769,47h18.462c0,0,5.769-4.768,5.769-12.632S28,19.8,28,14z"/><path fill="none" stroke="#000000" stroke-linejoin="round" stroke-miterlimit="10" stroke-width="2" d="M8.5 31L37.5 31"/></svg>