<svg fill="#000000" xmlns="http://www.w3.org/2000/svg"  viewBox="0 0 80 80" width="80px" height="80px"><path d="M 37.966797 12.986328 A 1.0001 1.0001 0 0 0 37.837891 13 L 34 13 A 1.0001 1.0001 0 0 0 33.013672 13.835938 L 32.400391 17.519531 C 32.056142 19.580392 30.693867 21.346818 28.779297 22.095703 C 18.944088 25.939134 12 34.728333 12 45 C 12 58.819941 24.530155 69.927249 39.857422 69.996094 A 1.0001 1.0001 0 0 0 40.101562 69.998047 A 1.0001 1.0001 0 0 0 40.103516 69.998047 C 55.448637 69.948015 68 58.831736 68 45 C 68 34.728333 61.055912 25.939134 51.220703 22.095703 C 49.306694 21.347884 47.943865 19.580437 47.599609 17.519531 L 46.986328 13.835938 A 1.0001 1.0001 0 0 0 46 13 L 38.167969 13 A 1.0001 1.0001 0 0 0 37.966797 12.986328 z M 34.847656 15 L 36.730469 15 C 36.111105 18.074627 36.598947 20.435415 37.341797 22.044922 C 38.021783 23.518226 38.794107 24.244431 39.125 24.533203 C 44.451006 38.335153 44.07582 52.830111 39.267578 67.984375 C 25.180125 67.639998 14 57.431613 14 45 C 14 35.629667 20.335021 27.543554 29.507812 23.958984 C 32.112679 22.94009 33.918797 20.572015 34.373047 17.847656 L 34.847656 15 z M 38.785156 15 L 45.152344 15 L 45.626953 17.847656 C 45.923501 19.626202 46.804627 21.244723 48.099609 22.443359 A 1.0001 1.0001 0 0 0 48.357422 22.765625 C 54.475255 27.904605 57.510414 33.137193 58.568359 38.128906 C 59.626305 43.12062 58.709925 47.919082 56.71875 52.203125 C 54.727575 56.487168 51.654142 60.23652 48.482422 63.013672 C 46.938725 64.36533 45.364933 65.476485 43.900391 66.318359 C 44.430612 65.642373 44.977624 64.910472 45.544922 64.078125 C 47.496267 61.215085 49.538377 57.484153 50.949219 53.1875 C 53.770901 44.594193 54.000909 33.649574 45.78125 23.375 A 1.0004882 1.0004882 0 1 0 44.21875 24.625 C 51.999091 34.350426 51.729099 44.405807 49.050781 52.5625 C 47.711623 56.640847 45.753733 60.222415 43.892578 62.953125 C 43.193069 63.979454 42.543822 64.755945 41.90625 65.525391 C 45.942972 51.070636 46.139778 37.01091 40.931641 23.636719 A 1.0001 1.0001 0 0 0 40.599609 23.199219 C 40.599609 23.199219 39.815533 22.629294 39.158203 21.205078 C 38.551079 19.889643 38.10977 17.891523 38.785156 15 z M 54.330078 25.830078 C 61.380557 29.956997 66 37.005623 66 45 C 66 55.817169 57.533708 64.951024 46.054688 67.369141 C 47.289703 66.568059 48.549499 65.611488 49.798828 64.517578 C 53.158358 61.57598 56.397425 57.637832 58.53125 53.046875 C 60.665075 48.455918 61.686195 43.19188 60.525391 37.714844 C 59.692096 33.783103 57.728537 29.76699 54.330078 25.830078 z M 25.125 30.011719 C 24.865 30.011719 24.604922 30.104062 24.419922 30.289062 C 24.229922 30.479062 24.130859 30.74 24.130859 31 C 24.130859 31.26 24.229922 31.520937 24.419922 31.710938 C 24.609922 31.890938 24.860859 32 25.130859 32 C 25.390859 32 25.650078 31.890937 25.830078 31.710938 C 26.020078 31.520938 26.130859 31.26 26.130859 31 C 26.130859 30.74 26.020078 30.479063 25.830078 30.289062 C 25.645078 30.104062 25.385 30.011719 25.125 30.011719 z M 39.003906 30.042969 C 38.742656 30.042969 38.479062 30.135312 38.289062 30.320312 C 38.109062 30.500313 38 30.759531 38 31.019531 C 38 31.159531 38.020078 31.280156 38.080078 31.410156 C 38.130078 31.530156 38.199062 31.640469 38.289062 31.730469 C 38.479062 31.920469 38.74 32.019531 39 32.019531 C 39.26 32.019531 39.520938 31.920469 39.710938 31.730469 C 39.890938 31.540469 40 31.289531 40 31.019531 C 40 30.759531 39.890937 30.500312 39.710938 30.320312 C 39.525938 30.135312 39.265156 30.042969 39.003906 30.042969 z M 35.298828 30.59375 C 35.170234 30.572813 35.035391 30.576875 34.900391 30.609375 C 34.370391 30.739375 34.039922 31.280313 34.169922 31.820312 C 34.279922 32.280313 34.690625 32.580078 35.140625 32.580078 C 35.220625 32.580078 35.300859 32.570781 35.380859 32.550781 C 35.920859 32.420781 36.239375 31.879844 36.109375 31.339844 C 36.011875 30.942344 35.684609 30.656562 35.298828 30.59375 z M 31.4375 31.886719 C 31.307188 31.891562 31.175781 31.922969 31.050781 31.980469 C 30.550781 32.220469 30.340078 32.820312 30.580078 33.320312 C 30.750078 33.680312 31.110469 33.890625 31.480469 33.890625 C 31.630469 33.890625 31.779922 33.859063 31.919922 33.789062 C 32.409922 33.549062 32.620625 32.950938 32.390625 32.460938 C 32.210625 32.085938 31.828437 31.872187 31.4375 31.886719 z M 22.142578 32.810547 C 21.887578 32.831797 21.640937 32.950156 21.460938 33.160156 C 21.100937 33.580156 21.150078 34.210313 21.580078 34.570312 C 21.760078 34.730312 21.990703 34.810547 22.220703 34.810547 C 22.500703 34.810547 22.790469 34.689219 22.980469 34.449219 C 23.340469 34.029219 23.289141 33.399062 22.869141 33.039062 C 22.659141 32.864062 22.397578 32.789297 22.142578 32.810547 z M 28.304688 33.943359 C 28.050937 33.914609 27.785312 33.985156 27.570312 34.160156 C 27.140312 34.500156 27.060156 35.130547 27.410156 35.560547 C 27.610156 35.810547 27.899453 35.939453 28.189453 35.939453 C 28.409453 35.939453 28.630547 35.870703 28.810547 35.720703 C 29.250547 35.380703 29.320703 34.750312 28.970703 34.320312 C 28.800703 34.100313 28.558438 33.972109 28.304688 33.943359 z M 38.849609 35.039062 C 38.299609 35.079062 37.889688 35.559375 37.929688 36.109375 C 37.959688 36.629375 38.399922 37.039062 38.919922 37.039062 L 38.990234 37.039062 C 39.540234 36.999063 39.959922 36.520703 39.919922 35.970703 C 39.879922 35.420703 39.409609 34.999063 38.849609 35.039062 z M 35.074219 35.845703 C 34.943906 35.837578 34.809688 35.855391 34.679688 35.900391 C 34.159687 36.080391 33.890078 36.649687 34.080078 37.179688 C 34.220078 37.589687 34.599531 37.839844 35.019531 37.839844 C 35.129531 37.839844 35.239609 37.819063 35.349609 37.789062 C 35.869609 37.599063 36.150937 37.029766 35.960938 36.509766 C 35.825937 36.119766 35.465156 35.870078 35.074219 35.845703 z M 20.046875 36.150391 C 19.656875 36.118516 19.267578 36.312188 19.080078 36.679688 L 19.070312 36.679688 C 18.820312 37.169688 19 37.779297 19.5 38.029297 C 19.64 38.109297 19.800937 38.150391 19.960938 38.150391 C 20.320937 38.150391 20.669609 37.949375 20.849609 37.609375 C 21.099609 37.119375 20.909688 36.519766 20.429688 36.259766 C 20.307188 36.197266 20.176875 36.161016 20.046875 36.150391 z M 25.337891 36.730469 C 25.084141 36.766719 24.844687 36.899141 24.679688 37.119141 C 24.349688 37.559141 24.450625 38.189531 24.890625 38.519531 C 25.070625 38.649531 25.280469 38.720703 25.480469 38.720703 C 25.790469 38.720703 26.089063 38.580547 26.289062 38.310547 C 26.619062 37.870547 26.530078 37.239922 26.080078 36.919922 C 25.860078 36.754922 25.591641 36.694219 25.337891 36.730469 z M 31.636719 37.722656 C 31.384219 37.687656 31.120391 37.749922 30.900391 37.919922 C 30.460391 38.249922 30.370938 38.880313 30.710938 39.320312 C 30.900938 39.580312 31.2 39.710938 31.5 39.710938 C 31.71 39.710938 31.929375 39.649766 32.109375 39.509766 C 32.549375 39.179766 32.630781 38.549375 32.300781 38.109375 C 32.130781 37.889375 31.889219 37.757656 31.636719 37.722656 z M 18.361328 39.923828 C 17.975078 39.984297 17.644063 40.264922 17.539062 40.669922 C 17.409062 41.199922 17.729766 41.750859 18.259766 41.880859 C 18.349766 41.900859 18.429766 41.910156 18.509766 41.910156 C 18.959766 41.910156 19.360469 41.610156 19.480469 41.160156 C 19.620469 40.620156 19.289766 40.079453 18.759766 39.939453 C 18.624766 39.906953 18.490078 39.903672 18.361328 39.923828 z M 23.597656 40.136719 C 23.209063 40.161094 22.853438 40.410781 22.710938 40.800781 C 22.530937 41.320781 22.810078 41.890078 23.330078 42.080078 C 23.440078 42.120078 23.550156 42.130859 23.660156 42.130859 C 24.070156 42.130859 24.459609 41.880938 24.599609 41.460938 C 24.789609 40.940937 24.510234 40.369453 23.990234 40.189453 C 23.860234 40.144453 23.727187 40.128594 23.597656 40.136719 z M 28.972656 40.695312 C 28.586406 40.65875 28.195 40.850938 28 41.210938 C 27.73 41.700938 27.910625 42.300312 28.390625 42.570312 C 28.550625 42.650312 28.709141 42.689453 28.869141 42.689453 C 29.229141 42.689453 29.57 42.499922 29.75 42.169922 C 30.01 41.679922 29.839609 41.080547 29.349609 40.810547 C 29.229609 40.745547 29.101406 40.7075 28.972656 40.695312 z M 18 43.910156 C 17.45 43.910156 17 44.350156 17 44.910156 C 17 45.460156 17.440234 45.910156 17.990234 45.910156 L 18 45.910156 C 18.55 45.910156 19 45.469922 19 44.919922 C 19 44.359922 18.56 43.920156 18 43.910156 z M 23.009766 43.949219 C 22.449766 43.939219 22 44.389453 22 44.939453 C 22 45.489453 22.44 45.939219 23 45.949219 C 23.55 45.949219 24 45.499219 24 44.949219 C 24 44.399219 23.559766 43.949219 23.009766 43.949219 z M 27.939453 44.539062 C 27.389453 44.589062 26.979297 45.069141 27.029297 45.619141 C 27.069297 46.139141 27.509531 46.539062 28.019531 46.539062 C 28.049531 46.539063 28.079609 46.539297 28.099609 46.529297 C 28.649609 46.489297 29.059531 46.000937 29.019531 45.460938 C 28.969531 44.900938 28.489453 44.489063 27.939453 44.539062 z M 23.693359 47.767578 C 23.563984 47.758516 23.430781 47.775312 23.300781 47.820312 C 22.780781 48.000313 22.499688 48.559844 22.679688 49.089844 C 22.819688 49.499844 23.210859 49.769531 23.630859 49.769531 C 23.730859 49.769531 23.839219 49.750937 23.949219 49.710938 C 24.469219 49.540937 24.750312 48.969453 24.570312 48.439453 C 24.435312 48.049453 24.081484 47.794766 23.693359 47.767578 z M 18.628906 47.935547 C 18.500312 47.914609 18.365469 47.916719 18.230469 47.949219 C 17.690469 48.079219 17.37 48.620391 17.5 49.150391 C 17.61 49.610391 18.020703 49.919922 18.470703 49.919922 C 18.550703 49.919922 18.619219 49.910625 18.699219 49.890625 C 19.239219 49.760625 19.569453 49.219687 19.439453 48.679688 C 19.341953 48.282188 19.014688 47.998359 18.628906 47.935547 z M 29.605469 48.226562 C 29.352969 48.186563 29.084375 48.245156 28.859375 48.410156 C 28.419375 48.730156 28.320625 49.360547 28.640625 49.810547 C 28.840625 50.070547 29.139219 50.220703 29.449219 50.220703 C 29.659219 50.220703 29.859063 50.149531 30.039062 50.019531 C 30.489062 49.699531 30.579766 49.070859 30.259766 48.630859 C 30.094766 48.405859 29.857969 48.266562 29.605469 48.226562 z M 32.546875 50.912109 C 32.160625 50.851172 31.756563 51.016641 31.539062 51.369141 C 31.249063 51.829141 31.389375 52.450234 31.859375 52.740234 C 32.019375 52.850234 32.200625 52.900391 32.390625 52.900391 C 32.720625 52.900391 33.040469 52.729687 33.230469 52.429688 C 33.530469 51.959687 33.389922 51.340781 32.919922 51.050781 C 32.802422 50.978281 32.675625 50.932422 32.546875 50.912109 z M 25.574219 51.207031 C 25.321719 51.167031 25.055078 51.225625 24.830078 51.390625 C 24.390078 51.720625 24.289141 52.339062 24.619141 52.789062 C 24.809141 53.059063 25.109922 53.199219 25.419922 53.199219 C 25.629922 53.199219 25.839766 53.13 26.009766 53 C 26.459766 52.68 26.560469 52.049375 26.230469 51.609375 C 26.065469 51.384375 25.826719 51.247031 25.574219 51.207031 z M 19.802734 51.699219 C 19.672734 51.709375 19.542422 51.745547 19.419922 51.810547 C 18.929922 52.060547 18.740234 52.660391 18.990234 53.150391 C 19.170234 53.500391 19.520859 53.699219 19.880859 53.699219 C 20.030859 53.699219 20.189844 53.660078 20.339844 53.580078 C 20.829844 53.330078 21.019531 52.730234 20.769531 52.240234 C 20.582031 51.872734 20.192734 51.66875 19.802734 51.699219 z M 35.910156 52.486328 C 35.523438 52.539766 35.192578 52.815703 35.080078 53.220703 C 34.940078 53.750703 35.249297 54.299453 35.779297 54.439453 C 35.869297 54.469453 35.960781 54.480469 36.050781 54.480469 C 36.490781 54.480469 36.889766 54.180234 37.009766 53.740234 C 37.159766 53.210234 36.840547 52.659766 36.310547 52.509766 C 36.175547 52.474766 36.039062 52.468516 35.910156 52.486328 z M 40 53 C 39.45 53 39 53.45 39 54 C 39 54.55 39.45 55 40 55 C 40.55 55 41 54.55 41 54 C 41 53.45 40.55 53 40 53 z M 28.0625 54 C 27.816406 54.012188 27.580391 54.116563 27.400391 54.289062 C 27.310391 54.379062 27.239453 54.489141 27.189453 54.619141 C 27.139453 54.739141 27.109375 54.87 27.109375 55 C 27.109375 55.13 27.139453 55.260859 27.189453 55.380859 C 27.239453 55.500859 27.310391 55.610937 27.400391 55.710938 C 27.590391 55.890938 27.849375 56 28.109375 56 C 28.179375 56 28.240547 55.990469 28.310547 55.980469 C 28.370547 55.970469 28.430234 55.949922 28.490234 55.919922 C 28.550234 55.899922 28.609922 55.870078 28.669922 55.830078 L 28.820312 55.710938 C 28.910313 55.610937 28.979063 55.500859 29.039062 55.380859 C 29.089062 55.260859 29.109375 55.13 29.109375 55 C 29.109375 54.87 29.089063 54.739141 29.039062 54.619141 C 28.979062 54.489141 28.910312 54.379063 28.820312 54.289062 C 28.770313 54.249063 28.719922 54.199922 28.669922 54.169922 C 28.609922 54.129922 28.550234 54.100313 28.490234 54.070312 C 28.430234 54.050313 28.370547 54.029531 28.310547 54.019531 C 28.228047 54.002031 28.144531 53.995937 28.0625 54 z M 22.197266 55.058594 C 21.942266 55.034844 21.680703 55.109063 21.470703 55.289062 C 21.040703 55.639063 20.989844 56.269219 21.339844 56.699219 C 21.539844 56.929219 21.819375 57.060547 22.109375 57.060547 C 22.329375 57.060547 22.56 56.980078 22.75 56.830078 C 23.17 56.470078 23.230859 55.839922 22.880859 55.419922 C 22.700859 55.204922 22.452266 55.082344 22.197266 55.058594 z M 24.876953 57.892578 C 24.623203 57.920078 24.380938 58.044766 24.210938 58.259766 C 23.860938 58.689766 23.929375 59.320156 24.359375 59.660156 C 24.539375 59.810156 24.760469 59.890625 24.980469 59.890625 C 25.280469 59.890625 25.569766 59.759766 25.759766 59.509766 C 26.109766 59.079766 26.039375 58.449375 25.609375 58.109375 C 25.394375 57.934375 25.130703 57.865078 24.876953 57.892578 z M 28.443359 60.125 C 28.057109 60.088438 27.665703 60.280625 27.470703 60.640625 C 27.210703 61.130625 27.389141 61.74 27.869141 62 C 28.019141 62.08 28.189609 62.119141 28.349609 62.119141 C 28.699609 62.119141 29.050469 61.929609 29.230469 61.599609 C 29.490469 61.109609 29.310312 60.500234 28.820312 60.240234 C 28.700312 60.175234 28.572109 60.137187 28.443359 60.125 z M 31.978516 61.724609 C 31.590859 61.756484 31.236875 62.012656 31.109375 62.410156 C 30.929375 62.930156 31.210234 63.499922 31.740234 63.669922 C 31.840234 63.709922 31.950781 63.720703 32.050781 63.720703 C 32.470781 63.720703 32.86 63.459063 33 63.039062 C 33.18 62.519062 32.899141 61.949531 32.369141 61.769531 C 32.239141 61.727031 32.107734 61.713984 31.978516 61.724609 z M 35.947266 62.689453 C 35.703047 62.701641 35.461562 62.807969 35.289062 62.980469 C 35.109062 63.170469 35 63.419453 35 63.689453 C 35 63.819453 35.030078 63.950312 35.080078 64.070312 C 35.130078 64.190313 35.199062 64.300625 35.289062 64.390625 C 35.339062 64.440625 35.389453 64.479531 35.439453 64.519531 L 35.619141 64.609375 C 35.679141 64.639375 35.740781 64.649922 35.800781 64.669922 C 35.870781 64.679922 35.94 64.689453 36 64.689453 C 36.06 64.689453 36.129453 64.679922 36.189453 64.669922 C 36.259453 64.649922 36.320859 64.639375 36.380859 64.609375 L 36.560547 64.519531 C 36.610547 64.479531 36.660938 64.440625 36.710938 64.390625 C 36.800938 64.300625 36.869922 64.190313 36.919922 64.070312 C 36.979922 63.950313 37 63.819453 37 63.689453 C 37 63.619453 36.990469 63.560234 36.980469 63.490234 C 36.970469 63.430234 36.949922 63.360781 36.919922 63.300781 C 36.899922 63.240781 36.870078 63.190859 36.830078 63.130859 C 36.800078 63.080859 36.750937 63.020469 36.710938 62.980469 C 36.660937 62.930469 36.610547 62.889375 36.560547 62.859375 C 36.500547 62.819375 36.440859 62.789766 36.380859 62.759766 C 36.320859 62.739766 36.259453 62.720937 36.189453 62.710938 C 36.109453 62.693438 36.028672 62.685391 35.947266 62.689453 z"/></svg>