<svg fill="#000000" xmlns="http://www.w3.org/2000/svg"  viewBox="0 0 100 100" width="400px" height="400px"><path d="M 67.917969 7 C 66.717969 7 65.71875 6.9996094 64.71875 7.0996094 C 62.81875 7.2996094 61.11875 7.8 59.71875 8.5 C 56.91875 9.8 55.017969 11.999219 53.917969 14.199219 C 52.817969 16.399219 52.317187 18.7 52.117188 20.5 C 50.117188 17 47.817187 15.199609 47.617188 15.099609 C 47.117188 14.699609 46.51875 14.800781 46.21875 15.300781 C 45.81875 15.800781 46.017969 16.399219 46.417969 16.699219 C 46.587287 16.868537 50.646487 19.850922 52.298828 26.25 C 48.812 25.636936 44.413786 25 40.744141 25 C 28.074793 25 15 36.058907 15 54.046875 C 15 67.719858 21.540454 77.788299 34.267578 83.748047 C 34.270278 83.749347 34.272691 83.750653 34.275391 83.751953 C 36.778206 84.9953 46.776214 88.89704 49.5625 89.892578 L 51.417969 90.882812 A 1.0001 1.0001 0 0 0 51.888672 91 C 52.897765 91 53.697129 90.194779 53.970703 89.376953 L 53.916016 89.507812 C 54.159262 89.023251 54.667562 88.575015 55.578125 88.078125 C 56.488688 87.581235 57.752941 87.064512 59.277344 86.400391 C 61.191157 85.636489 63.271568 84.694761 65.71875 83.568359 A 1.0001 1.0001 0 0 0 65.755859 83.548828 C 79.616935 76.450123 85 65.790796 85 52.541016 C 85 44.440311 82.636161 37.31372 78.179688 32.369141 C 73.723213 27.424561 67.1589 24.736967 59.115234 25.488281 A 1.000405 1.000405 0 0 0 59.300781 27.480469 C 66.813116 26.778783 72.644786 29.212861 76.695312 33.707031 C 80.74584 38.201202 83 44.82972 83 52.541016 C 83 65.261748 78.185205 74.928968 64.859375 81.759766 C 62.419267 82.882794 60.358175 83.817089 58.507812 84.554688 A 1.0001 1.0001 0 0 0 58.478516 84.566406 C 56.979919 85.219285 55.69378 85.736906 54.621094 86.322266 C 53.548407 86.907626 52.64166 87.589891 52.128906 88.611328 A 1.0001 1.0001 0 0 0 52.074219 88.742188 C 52.009359 88.936097 51.985169 88.890282 51.958984 88.902344 L 50.441406 88.09375 A 1.0004595 1.0004595 0 0 0 50.4375 88.091797 A 1.0004698 1.0004698 0 0 0 50.435547 88.089844 A 1.0004595 1.0004595 0 0 0 50.306641 88.035156 C 50.107947 87.964441 49.613103 87.772688 49.326172 87.666016 C 49.292171 87.634755 49.264876 87.614096 49.230469 87.582031 C 47.777271 86.227765 45.962493 84.152494 44.191406 81.306641 C 40.649233 75.614934 37.277344 66.841475 37.277344 54.511719 C 37.277344 51.925168 37.522016 49.564386 37.960938 47.414062 A 0.50005 0.50005 0 0 0 37.464844 46.808594 A 0.50005 0.50005 0 0 0 36.980469 47.214844 C 36.527391 49.434521 36.277344 51.86227 36.277344 54.511719 C 36.277344 67.023962 39.70622 75.994144 43.341797 81.835938 C 44.615074 83.881891 45.907601 85.522446 47.09375 86.822266 C 42.945615 85.219464 36.667415 82.708618 35.146484 81.951172 A 1.0001 1.0001 0 0 0 35.123047 81.941406 C 22.92155 76.230704 17 67.100963 17 54.046875 C 17 37.022843 29.237489 27 40.744141 27 C 44.070054 27 48.239924 27.582184 51.626953 28.166016 C 49.323021 29.261612 46.914736 30.799739 44.703125 32.904297 A 0.5001009 0.5001009 0 1 0 45.392578 33.628906 C 47.972448 31.173916 50.837374 29.506532 53.457031 28.447266 A 1.0002109 1.0002109 0 0 0 53.947266 28.271484 C 54.374746 28.218307 54.683598 27.881849 54.433594 27 C 54.143594 25.977 53.943188 24.995609 53.617188 24.099609 C 55.417187 24.099609 59.017578 23.899609 62.517578 22.599609 C 65.017578 21.699609 67.518359 20.300391 69.318359 17.900391 C 71.118359 15.500391 72.217969 12.300391 71.917969 7.9003906 C 71.917969 7.6003906 71.717578 7.4003906 71.517578 7.4003906 C 70.217578 7.2003906 69.017969 7 67.917969 7 z M 66.21875 7.9003906 C 67.61875 7.9003906 69.217969 7.9992187 70.917969 8.1992188 C 71.017969 12.099219 70.117578 14.999609 68.517578 17.099609 C 66.917578 19.299609 64.61875 20.6 62.21875 21.5 C 57.81875 23.1 53.717578 22.900391 53.017578 22.900391 C 53.017578 22.200391 52.918359 18.399609 54.818359 14.599609 C 55.818359 12.499609 57.517188 10.600781 60.117188 9.3007812 C 61.417187 8.7007813 62.918359 8.2 64.818359 8 C 65.318359 7.9 65.71875 7.9003906 66.21875 7.9003906 z M 66.417969 10.199219 C 66.417969 10.199219 59.217188 12.300391 55.117188 19.400391 C 54.917187 19.700391 55.01875 19.999219 55.21875 20.199219 C 55.51875 20.299219 55.817969 20.2 55.917969 20 C 59.817969 13.1 66.617187 11.199219 66.617188 11.199219 C 66.817188 11.099219 67.017578 10.899219 67.017578 10.699219 C 67.017578 10.399219 66.817578 10.199219 66.517578 10.199219 L 66.417969 10.199219 z M 42.40625 35.667969 A 0.50005 0.50005 0 0 0 42.037109 35.869141 C 41.125223 37.057449 40.282052 38.371027 39.539062 39.820312 A 0.50052296 0.50052296 0 1 0 40.429688 40.277344 C 41.144698 38.882629 41.953965 37.618254 42.830078 36.476562 A 0.50005 0.50005 0 0 0 42.40625 35.667969 z M 38.679688 42.449219 A 0.50005 0.50005 0 0 0 38.238281 42.78125 C 38.060163 43.261661 37.89305 43.753981 37.736328 44.259766 A 0.50007718 0.50007718 0 1 0 38.691406 44.556641 C 38.842684 44.068425 39.0039 43.592495 39.175781 43.128906 A 0.50005 0.50005 0 0 0 38.679688 42.449219 z"/></svg>