<svg xmlns="http://www.w3.org/2000/svg"  viewBox="0 0 100 100" width="100px" height="100px"><path fill="#d3dff1" d="M66.332,24.49C66.757,24.109,67,23.566,67,23v-3c0-5.009-6.355-8-17-8s-17,2.991-17,8v3 c0,0.566,0.243,1.109,0.668,1.49H66.332z"/><path fill="#a9dde2" d="M66,35.5v3.59c2.837,0.477,5,2.938,5,5.91v37c0,3.314-2.686,6-6,6H35c-3.314,0-6-2.686-6-6V45 c0-2.972,2.163-5.433,5-5.91V35.5H66z"/><path fill="#8e9db5" d="M29,52v30c0,3.314,2.686,6,6,6h30c3.314,0,6-2.686,6-6V52H29z"/><path fill="#78ccd3" d="M33.015,35.5h33.97c0.613-0.456,1.015-1.178,1.015-2c0-1.381-1.119-2.5-2.5-2.5 c-1.171,0-29.829,0-31,0c-1.381,0-2.5,1.119-2.5,2.5C32,34.322,32.402,35.044,33.015,35.5z"/><path fill="#a2b4cc" d="M33.5,31c8.157,0,24.243,0,33,0l1.5-2l-1-1.5l1-1.5l-1-1.5H33L32,26l1,1.5L32,29L33.5,31z"/><g><path fill="#1f212b" d="M58.5,53H29c-0.276,0-0.5-0.224-0.5-0.5S28.724,52,29,52h29.5c0.276,0,0.5,0.224,0.5,0.5 S58.776,53,58.5,53z"/><path fill="#1f212b" d="M71,53h-4.5c-0.276,0-0.5-0.224-0.5-0.5s0.224-0.5,0.5-0.5H71c0.276,0,0.5,0.224,0.5,0.5 S71.276,53,71,53z"/><path fill="#1f212b" d="M62.5,53h-1c-0.276,0-0.5-0.224-0.5-0.5s0.224-0.5,0.5-0.5h1c0.276,0,0.5,0.224,0.5,0.5 S62.776,53,62.5,53z"/><path fill="#1f212b" d="M58.5,40H32.681c-0.276,0-0.5-0.224-0.5-0.5s0.224-0.5,0.5-0.5H58.5c0.276,0,0.5,0.224,0.5,0.5 S58.776,40,58.5,40z"/><path fill="#1f212b" d="M67.347,40H61.5c-0.276,0-0.5-0.224-0.5-0.5s0.224-0.5,0.5-0.5h5.847c0.276,0,0.5,0.224,0.5,0.5 S67.623,40,67.347,40z"/><path fill="#1f212b" d="M65,89H35c-3.859,0-7-3.14-7-7V45c0-3.139,2.058-5.835,5-6.704V36c0-0.552,0.447-1,1-1s1,0.448,1,1 v3.09c0,0.488-0.353,0.905-0.834,0.986C31.752,40.482,30,42.553,30,45v37c0,2.757,2.243,5,5,5h30c2.757,0,5-2.243,5-5V45 c0-2.447-1.752-4.518-4.166-4.924C65.353,39.995,65,39.578,65,39.09V36c0-0.552,0.447-1,1-1s1,0.448,1,1v2.296 c2.942,0.869,5,3.565,5,6.704v37C72,85.86,68.859,89,65,89z"/><path fill="#1f212b" d="M56.5,28h-1c-0.276,0-0.5-0.224-0.5-0.5s0.224-0.5,0.5-0.5h1c0.276,0,0.5,0.224,0.5,0.5 S56.776,28,56.5,28z"/><path fill="#1f212b" d="M67,25H33c-0.276,0-0.5-0.224-0.5-0.5S32.724,24,33,24h34c0.276,0,0.5,0.224,0.5,0.5 S67.276,25,67,25z"/><path fill="#1f212b" d="M52.5,28H33c-0.276,0-0.5-0.224-0.5-0.5S32.724,27,33,27h19.5c0.276,0,0.5,0.224,0.5,0.5 S52.776,28,52.5,28z"/><path fill="#1f212b" d="M34.001,36.95c-0.066,0-0.133-0.006-0.2-0.02C32.178,36.6,31,35.157,31,33.5 c0-1.93,1.57-3.5,3.5-3.5c0.553,0,1,0.448,1,1s-0.447,1-1,1c-0.827,0-1.5,0.673-1.5,1.5c0,0.71,0.504,1.329,1.199,1.47 c0.541,0.11,0.891,0.638,0.78,1.179C34.884,36.623,34.467,36.95,34.001,36.95z"/><path fill="#1f212b" d="M65.999,36.95c-0.466,0-0.883-0.327-0.979-0.801c-0.11-0.541,0.239-1.069,0.78-1.179 C66.496,34.829,67,34.21,67,33.5c0-0.827-0.673-1.5-1.5-1.5c-0.553,0-1-0.448-1-1s0.447-1,1-1c1.93,0,3.5,1.57,3.5,3.5 c0,1.657-1.178,3.1-2.801,3.43C66.132,36.943,66.065,36.95,65.999,36.95z"/><path fill="#1f212b" d="M67,36H33c-0.276,0-0.5-0.224-0.5-0.5S32.724,35,33,35h34c0.276,0,0.5,0.224,0.5,0.5 S67.276,36,67,36z"/><path fill="#1f212b" d="M67,28h-5.5c-0.276,0-0.5-0.224-0.5-0.5s0.224-0.5,0.5-0.5H67c0.276,0,0.5,0.224,0.5,0.5 S67.276,28,67,28z"/><path fill="#1f212b" d="M67.181,31.76l-1.6-1.2l1.194-1.593l-0.607-0.912c-0.224-0.336-0.224-0.773,0-1.109L66.798,26 l-0.63-0.945l1.664-1.109l1,1.5c0.224,0.336,0.224,0.773,0,1.109l-0.63,0.945l0.63,0.945c0.235,0.353,0.223,0.815-0.032,1.155 L67.181,31.76z"/><path fill="#1f212b" d="M32.819,31.76L31.2,29.6c-0.255-0.339-0.268-0.802-0.032-1.155l0.63-0.945l-0.63-0.945 c-0.224-0.336-0.224-0.773,0-1.109l1-1.5l1.664,1.109L33.202,26l0.63,0.945c0.224,0.336,0.224,0.773,0,1.109l-0.607,0.912 l1.194,1.593L32.819,31.76z"/><path fill="#1f212b" d="M66.5,32h-33c-0.553,0-1-0.448-1-1s0.447-1,1-1h33c0.553,0,1,0.448,1,1S67.053,32,66.5,32z"/><circle cx="50" cy="17" r="1" fill="#1f212b"/><circle cx="42" cy="18" r="1" fill="#1f212b"/><circle cx="58" cy="18" r="1" fill="#1f212b"/><path fill="#1f212b" d="M50,11c-11.271,0-18,3.364-18,9v3c0,0.771,0.301,1.468,0.78,2h2.72v-1H35c-0.552,0-1-0.449-1-1v-3 c0-4.318,6.131-7,16-7s16,2.682,16,7v3c0,0.551-0.448,1-1,1h-0.5v1h2.72c0.48-0.532,0.78-1.229,0.78-2v-3 C68,14.364,61.271,11,50,11z"/><circle cx="52" cy="58" r="1" fill="#1f212b"/><circle cx="55" cy="61" r="1" fill="#1f212b"/><circle cx="61" cy="61" r="1" fill="#1f212b"/><circle cx="58" cy="58" r="1" fill="#1f212b"/><circle cx="64" cy="58" r="1" fill="#1f212b"/></g></svg>