<svg fill="#000000" xmlns="http://www.w3.org/2000/svg"  viewBox="0 0 100 100" width="400px" height="400px"><path fill="none" stroke="#000000" stroke-linecap="round" stroke-linejoin="round" stroke-miterlimit="10" stroke-width="2" d="M40.741,84.97c-9.753,0-17.797-4.003-22.076-10.982C9.95,59.774,18.29,52.328,27.948,43.707c2.625-2.342,5.337-4.765,7.683-7.361	c0.746-0.827,1.492-1.661,2.238-2.495C45.267,25.568,52.92,17,61.885,17c3.514,0,7.034,1.257,10.76,3.841	c5.908,4.098,9.437,10.423,10.201,18.293c1.093,11.234-3.687,24.144-12.174,32.89C62.804,80.13,51.614,84.97,40.741,84.97z"/><circle cx="55" cy="39" r="3.5" fill="none" stroke="#000000" stroke-linecap="round" stroke-miterlimit="20"/><circle cx="66.5" cy="31.5" r="2" fill="none" stroke="#000000" stroke-linecap="round" stroke-miterlimit="20"/><circle cx="66" cy="47" r="1.5" fill="none" stroke="#000000" stroke-linecap="round" stroke-miterlimit="20"/><circle cx="41" cy="63" r="1.5" fill="none" stroke="#000000" stroke-linecap="round" stroke-miterlimit="20"/><circle cx="41" cy="76" r="1.5" fill="none" stroke="#000000" stroke-linecap="round" stroke-miterlimit="20"/><circle cx="29" cy="70" r="1.5" fill="none" stroke="#000000" stroke-linecap="round" stroke-miterlimit="20"/></svg>