<?xml version="1.0"?><svg fill="#000000" xmlns="http://www.w3.org/2000/svg"  viewBox="0 0 100 100" width="200px" height="200px">    <path d="M 71.423828 4.0039062 C 71.356453 3.9966562 71.287203 4.0019375 71.220703 4.0234375 C 71.088703 4.0644375 70.979922 4.1601562 70.919922 4.2851562 L 61.859375 23.263672 C 61.700375 23.436672 61.546297 23.614687 61.404297 23.804688 C 60.135297 22.844687 58.295969 22.744656 56.917969 23.597656 C 55.759969 20.820656 53.061 19 50 19 C 46.976 19 44.255703 20.845031 43.095703 23.582031 C 42.371703 22.974031 41.273391 22.823719 40.400391 23.261719 C 39.604391 21.870719 38.132 21 36.5 21 C 34.97 21 33.542656 21.800125 32.722656 23.078125 C 31.604656 22.371125 30.328 22 29 22 C 25.141 22 22 25.141 22 29 C 22 29.334 22.024266 29.669 22.072266 30 C 18.584266 30.694 16 34.026969 16 37.917969 C 16 38.281969 16.024359 38.642 16.068359 39 L 13 39 C 12.734 39 12.479969 39.105922 12.292969 39.294922 C 12.104969 39.482922 11.999 39.737906 12 40.003906 C 12.001 40.248906 12.352859 63.548563 33.005859 71.976562 C 33.005859 71.984562 33 71.991 33 72 L 33 78 C 33 78.553 33.447 79 34 79 L 66 79 C 66.553 79 67 78.553 67 78 L 67 72 C 67 71.991 66.994141 71.983609 66.994141 71.974609 C 87.646141 63.546609 87.999 40.247906 88 40.003906 C 88.001 39.737906 87.895031 39.483922 87.707031 39.294922 C 87.520031 39.105922 87.266 39 87 39 L 84 39 C 84 36.217 82.381516 33.739328 79.853516 32.611328 C 79.262516 29.672328 76.891688 27.460359 73.929688 27.068359 C 73.898687 26.839359 73.856688 26.615531 73.804688 26.394531 L 81.910156 14.736328 C 82.066156 14.512328 82.013969 14.206875 81.792969 14.046875 L 79.095703 12.095703 C 78.986703 12.017703 78.85375 11.986812 78.71875 12.007812 C 78.58675 12.029813 78.468578 12.104844 78.392578 12.214844 L 71.263672 22.46875 C 70.326672 21.74375 69.205281 21.253125 67.988281 21.078125 L 74.951172 6.4902344 C 75.064172 6.2532344 74.973094 5.9688437 74.746094 5.8398438 L 71.617188 4.0664062 C 71.556187 4.0319063 71.491203 4.0111563 71.423828 4.0039062 z M 71.591797 5.1992188 L 73.847656 6.4785156 L 66.914062 21.005859 C 65.741062 21.019859 64.622812 21.327047 63.632812 21.873047 L 71.591797 5.1992188 z M 78.923828 13.203125 L 80.810547 14.568359 L 73.410156 25.210938 C 73.071156 24.435938 72.594672 23.735719 72.013672 23.136719 L 78.923828 13.203125 z M 50 20 C 52.854 20 55.347172 21.828828 56.201172 24.548828 C 56.252172 24.710828 56.380922 24.834859 56.544922 24.880859 C 56.709922 24.924859 56.884719 24.884484 57.011719 24.771484 C 58.190719 23.720484 60.057625 23.797344 61.140625 24.902344 C 61.245625 25.010344 61.399781 25.066828 61.550781 25.048828 C 61.702781 25.031828 61.839875 24.947359 61.921875 24.818359 C 63.028875 23.054359 64.927 22 67 22 C 69.716 22 72.054578 23.845953 72.767578 26.376953 C 72.770578 26.400953 72.780109 26.421359 72.787109 26.443359 C 72.884109 26.803359 72.949563 27.177547 72.976562 27.560547 C 72.995563 27.808547 73.191453 28.004437 73.439453 28.023438 C 76.222453 28.224438 78.474016 30.289922 78.916016 33.044922 C 78.944016 33.218922 79.061609 33.364688 79.224609 33.429688 C 81.517609 34.348687 83 36.534 83 39 L 17.080078 39 C 17.030078 38.643 17 38.282969 17 37.917969 C 17 34.382969 19.403797 31.376781 22.591797 30.925781 C 22.711797 30.908781 22.820391 30.848812 22.900391 30.757812 C 23.078391 30.648812 23.171906 30.437516 23.128906 30.228516 C 23.043906 29.824516 23 29.412 23 29 C 23 25.691 25.691 23 29 23 C 30.301 23 31.542797 23.415172 32.591797 24.201172 C 32.710797 24.291172 32.867719 24.323109 33.011719 24.287109 C 33.157719 24.251109 33.27975 24.150625 33.34375 24.015625 C 33.93075 22.771625 35.14 22 36.5 22 C 37.926 22 39.196328 22.854688 39.736328 24.179688 C 39.797328 24.328688 39.925031 24.440516 40.082031 24.478516 C 40.239031 24.514516 40.402391 24.476094 40.525391 24.371094 C 40.722391 24.201094 41.051 24 41.5 24 C 42.058 24 42.565172 24.313359 42.826172 24.818359 C 42.920172 25.000359 43.121313 25.108937 43.320312 25.085938 C 43.524313 25.064937 43.694953 24.923563 43.751953 24.726562 C 44.540953 21.943562 47.11 20 50 20 z M 51.5 25 C 51.224 25 51 25.224 51 25.5 L 51 27.5 C 51 27.776 51.224 28 51.5 28 C 51.776 28 52 27.776 52 27.5 L 52 25.5 C 52 25.224 51.776 25 51.5 25 z M 66.53125 26.001953 C 66.336859 25.99 66.145734 26.092844 66.052734 26.277344 C 65.930734 26.523344 66.028391 26.823266 66.275391 26.947266 L 68.275391 27.947266 C 68.348391 27.983266 68.425 28 68.5 28 C 68.683 28 68.859266 27.898609 68.947266 27.724609 C 69.070266 27.477609 68.969656 27.176734 68.722656 27.052734 L 66.722656 26.052734 C 66.660906 26.021984 66.596047 26.005937 66.53125 26.001953 z M 32.46875 28 C 32.403906 28.004062 32.339344 28.021984 32.277344 28.052734 C 32.030344 28.176734 31.929734 28.475656 32.052734 28.722656 L 33.052734 30.724609 C 33.140734 30.898609 33.317 31 33.5 31 C 33.575 31 33.651609 30.983266 33.724609 30.947266 C 33.971609 30.823266 34.070266 30.522391 33.947266 30.275391 L 32.947266 28.275391 C 32.854266 28.090141 32.663281 27.987813 32.46875 28 z M 61.556641 32.923828 C 61.491797 32.927891 61.427234 32.945812 61.365234 32.976562 L 59.365234 33.976562 C 59.118234 34.100563 59.017625 34.399484 59.140625 34.646484 C 59.228625 34.821484 59.404891 34.923828 59.587891 34.923828 C 59.662891 34.923828 59.7395 34.907094 59.8125 34.871094 L 61.8125 33.871094 C 62.0595 33.747094 62.158156 33.446219 62.035156 33.199219 C 61.942156 33.013969 61.751172 32.911641 61.556641 32.923828 z M 71.46875 33 C 71.403906 33.004109 71.339344 33.021734 71.277344 33.052734 C 71.030344 33.176734 70.929734 33.475656 71.052734 33.722656 L 72.052734 35.724609 C 72.140734 35.898609 72.317 36 72.5 36 C 72.575 36 72.651609 35.983266 72.724609 35.947266 C 72.971609 35.823266 73.070266 35.522391 72.947266 35.275391 L 71.947266 33.275391 C 71.854266 33.090141 71.663281 32.987672 71.46875 33 z M 25.53125 33.001953 C 25.337 32.99 25.145734 33.092844 25.052734 33.277344 L 24.052734 35.277344 C 23.930734 35.523344 24.028391 35.823266 24.275391 35.947266 C 24.348391 35.983266 24.425 36 24.5 36 C 24.683 36 24.859266 35.898609 24.947266 35.724609 L 25.947266 33.724609 C 26.070266 33.477609 25.969656 33.176734 25.722656 33.052734 C 25.661156 33.021984 25.596 33.005938 25.53125 33.001953 z M 43.53125 34.001953 C 43.337 33.989906 43.145734 34.092094 43.052734 34.277344 L 42.052734 36.277344 C 41.930734 36.523344 42.028391 36.823266 42.275391 36.947266 C 42.348391 36.983266 42.425 37 42.5 37 C 42.683 37 42.859266 36.898609 42.947266 36.724609 L 43.947266 34.724609 C 44.070266 34.477609 43.969656 34.176734 43.722656 34.052734 C 43.661156 34.022234 43.596 34.005969 43.53125 34.001953 z M 14.050781 41 L 85.949219 41 C 85.611219 45.616 83.043375 64.799 63.859375 71 L 36.138672 71 C 16.956672 64.8 14.389781 45.616 14.050781 41 z M 81.080078 46.007812 C 80.888406 46.044562 80.73025 46.195188 80.6875 46.398438 C 80.5505 47.054437 80.387125 47.714281 80.203125 48.363281 C 80.128125 48.629281 80.282828 48.906422 80.548828 48.982422 C 80.594828 48.994422 80.640547 49 80.685547 49 C 80.903547 49 81.105969 48.855719 81.167969 48.636719 C 81.357969 47.964719 81.525969 47.281516 81.667969 46.603516 C 81.724969 46.332516 81.549297 46.067719 81.279297 46.011719 C 81.210797 45.996469 81.143969 45.995562 81.080078 46.007812 z M 80.015625 50.001953 C 79.820953 50.013156 79.642766 50.135078 79.572266 50.330078 C 79.211266 51.337078 78.794031 52.33025 78.332031 53.28125 C 78.212031 53.53025 78.3145 53.828219 78.5625 53.949219 C 78.6325 53.983219 78.70825 54 78.78125 54 C 78.96725 54 79.145422 53.89575 79.232422 53.71875 C 79.709422 52.73575 80.140672 51.709922 80.513672 50.669922 C 80.606672 50.409922 80.472891 50.122297 80.212891 50.029297 C 80.147641 50.006547 80.080516 49.998219 80.015625 50.001953 z M 77.779297 55.003906 C 77.585328 54.978828 77.387453 55.066844 77.283203 55.246094 C 74.825203 59.448094 71.452766 62.749594 67.259766 65.058594 C 67.017766 65.192594 66.9295 65.496281 67.0625 65.738281 C 67.1545 65.903281 67.325 65.998047 67.5 65.998047 C 67.582 65.998047 67.664234 65.977547 67.740234 65.935547 C 72.094234 63.538547 75.595484 60.113906 78.146484 55.753906 C 78.286484 55.514906 78.20675 55.208359 77.96875 55.068359 C 77.9085 55.033859 77.843953 55.012266 77.779297 55.003906 z M 35 73 L 36.033203 73 C 36.057203 72.999 36.081469 73.003 36.105469 73 L 63.855469 73 C 63.894469 73.005 63.932656 73.019531 63.972656 73.019531 C 64.011656 73.019531 64.052797 73.005 64.091797 73 L 65 73 L 65 77 L 35 77 L 35 73 z"/></svg>