<svg fill="#000000" xmlns="http://www.w3.org/2000/svg"  viewBox="0 0 100 100" width="100px" height="100px"><line x1="29" x2="58.5" y1="52.5" y2="52.5" fill="none" stroke="#000000" stroke-linecap="round" stroke-linejoin="round" stroke-miterlimit="10"/><line x1="66.5" x2="71" y1="52.5" y2="52.5" fill="none" stroke="#000000" stroke-linecap="round" stroke-linejoin="round" stroke-miterlimit="10"/><line x1="61.5" x2="62.5" y1="52.5" y2="52.5" fill="none" stroke="#000000" stroke-linecap="round" stroke-linejoin="round" stroke-miterlimit="10"/><line x1="32.681" x2="58.5" y1="39.5" y2="39.5" fill="none" stroke="#000000" stroke-linecap="round" stroke-linejoin="round" stroke-miterlimit="10"/><line x1="61.5" x2="67.346" y1="39.5" y2="39.5" fill="none" stroke="#000000" stroke-linecap="round" stroke-linejoin="round" stroke-miterlimit="10"/><path fill="none" stroke="#000000" stroke-linecap="round" stroke-linejoin="round" stroke-miterlimit="10" stroke-width="2" d="M66,36v3.09c2.837,0.477,5,2.938,5,5.91v37c0,3.314-2.686,6-6,6H35c-3.314,0-6-2.686-6-6V45c0-2.972,2.163-5.433,5-5.91V36"/><line x1="56.5" x2="55.5" y1="27.5" y2="27.5" fill="none" stroke="#000000" stroke-linecap="round" stroke-miterlimit="10"/><line x1="67" x2="33" y1="24.5" y2="24.5" fill="none" stroke="#000000" stroke-linecap="round" stroke-miterlimit="10"/><line x1="52.5" x2="33" y1="27.5" y2="27.5" fill="none" stroke="#000000" stroke-linecap="round" stroke-miterlimit="10"/><path fill="none" stroke="#000000" stroke-linecap="round" stroke-linejoin="round" stroke-miterlimit="10" stroke-width="2" d="M34.5,31c-1.381,0-2.5,1.119-2.5,2.5c0,1.209,0.859,2.218,2,2.45"/><path fill="none" stroke="#000000" stroke-linecap="round" stroke-linejoin="round" stroke-miterlimit="10" stroke-width="2" d="M66,35.95c1.141-0.232,2-1.24,2-2.45c0-1.381-1.119-2.5-2.5-2.5"/><line x1="33" x2="67" y1="35.5" y2="35.5" fill="none" stroke="#000000" stroke-linecap="round" stroke-linejoin="round" stroke-miterlimit="10"/><line x1="61.5" x2="67" y1="27.5" y2="27.5" fill="none" stroke="#000000" stroke-linecap="round" stroke-miterlimit="10"/><polyline fill="none" stroke="#000000" stroke-linejoin="round" stroke-miterlimit="10" stroke-width="2" points="67,24.5 68,26 67,27.5 68,29 66.38,31.159"/><polyline fill="none" stroke="#000000" stroke-linejoin="round" stroke-miterlimit="10" stroke-width="2" points="33,24.5 32,26 33,27.5 32,29 33.62,31.159"/><line x1="66.5" x2="33.5" y1="31" y2="31" fill="none" stroke="#000000" stroke-linecap="round" stroke-linejoin="round" stroke-miterlimit="10" stroke-width="2"/><g><circle cx="50" cy="17" r="1"/><circle cx="42" cy="18" r="1"/><circle cx="58" cy="18" r="1"/><path d="M50,11c-11.271,0-18,3.364-18,9v3c0,0.771,0.301,1.468,0.78,2h2.72v-1H35c-0.552,0-1-0.449-1-1v-3c0-4.318,6.131-7,16-7 s16,2.682,16,7v3c0,0.551-0.448,1-1,1h-0.5v1h2.72C67.7,24.468,68,23.771,68,23v-3C68,14.364,61.271,11,50,11z"/><circle cx="52" cy="58" r="1"/><circle cx="55" cy="61" r="1"/><circle cx="61" cy="61" r="1"/><circle cx="58" cy="58" r="1"/><circle cx="64" cy="58" r="1"/></g></svg>