<svg fill="#000000" xmlns="http://www.w3.org/2000/svg"  viewBox="0 0 50 50" width="50px" height="50px"><path d="M18 33A1 1 0 1 0 18 35 1 1 0 1 0 18 33zM18 39A1 1 0 1 0 18 41 1 1 0 1 0 18 39zM21 36A1 1 0 1 0 21 38 1 1 0 1 0 21 36zM15 36A1 1 0 1 0 15 38 1 1 0 1 0 15 36zM15 42A1 1 0 1 0 15 44 1 1 0 1 0 15 42zM21 30A1 1 0 1 0 21 32 1 1 0 1 0 21 30zM21 42A1 1 0 1 0 21 44 1 1 0 1 0 21 42zM24 33A1 1 0 1 0 24 35 1 1 0 1 0 24 33zM24 39A1 1 0 1 0 24 41 1 1 0 1 0 24 39z"/><path fill="none" stroke="#000000" stroke-linecap="round" stroke-linejoin="round" stroke-miterlimit="10" stroke-width="2" d="M13 48L25 42 25 28 13 34zM13 48L1 42 1 28 13 34z"/><path fill="none" stroke="#000000" stroke-linecap="round" stroke-linejoin="round" stroke-miterlimit="10" stroke-width="2" d="M13 34L1 28 13 22 25 28z"/><g><path d="M30 13A1 1 0 1 0 30 15 1 1 0 1 0 30 13zM30 19A1 1 0 1 0 30 21 1 1 0 1 0 30 19zM33 16A1 1 0 1 0 33 18 1 1 0 1 0 33 16zM27 16A1 1 0 1 0 27 18 1 1 0 1 0 27 16zM27 22A1 1 0 1 0 27 24 1 1 0 1 0 27 22zM33 10A1 1 0 1 0 33 12 1 1 0 1 0 33 10zM33 22A1 1 0 1 0 33 24 1 1 0 1 0 33 22zM36 13A1 1 0 1 0 36 15 1 1 0 1 0 36 13zM36 19A1 1 0 1 0 36 21 1 1 0 1 0 36 19z"/></g><path fill="none" stroke="#000000" stroke-linecap="round" stroke-linejoin="round" stroke-miterlimit="10" stroke-width="2" d="M25 14L13 8 25 2 37 8z"/><g><path d="M42.8,44L38,46.4V43v-4l-2-2v9.4l-10-5V30l-5.2-5.2L14,21.4V18l-2-2v6c0,0.4,0.2,0.7,0.6,0.9L24,28.6V42c0,0.4,0.2,0.7,0.6,0.9l12,6l0,0C36.7,49,36.9,49,37,49s0.3,0,0.4-0.1l0,0l6.9-3.4L42.8,44z"/><path d="M50,27.7C50,27.7,49.9,27.7,50,27.7c-0.1-0.1-0.1-0.2-0.1-0.2s0-0.1-0.1-0.1l-0.1-0.1c0,0-0.1,0-0.1-0.1c0,0-0.1,0-0.1-0.1l0,0l0,0L38,21.4V8c0-0.3-0.2-0.7-0.5-0.9c-0.3-0.2-0.7-0.2-1,0L25,12.9L13.4,7.1c-0.3-0.2-0.7-0.1-1,0S12,7.7,12,8v8l2,2V9.6l10,5v14l6.9,3.4l5.1,2.5V37l2,2v-2v-2.4l10-4.9v11.7L42.8,44l1.5,1.5l5.1-2.6c0.3-0.2,0.6-0.5,0.6-0.9V28C50,27.9,50,27.8,50,27.7z M26,14.6l10-5v11.8l-10,5V14.6z M37,32.9L27.2,28l9.8-4.9l9.8,4.9L37,32.9z"/></g><g><path d="M42 33A1 1 0 1 0 42 35 1 1 0 1 0 42 33zM42 39A1 1 0 1 0 42 41 1 1 0 1 0 42 39zM45 36A1 1 0 1 0 45 38 1 1 0 1 0 45 36zM39 36A1 1 0 1 0 39 38 1 1 0 1 0 39 36zM39 42A1 1 0 1 0 39 44 1 1 0 1 0 39 42zM45 30A1 1 0 1 0 45 32 1 1 0 1 0 45 30zM45 42A1 1 0 1 0 45 44 1 1 0 1 0 45 42zM48 33A1 1 0 1 0 48 35 1 1 0 1 0 48 33zM48 39A1 1 0 1 0 48 41 1 1 0 1 0 48 39z"/></g></svg>