<svg fill="#000000" xmlns="http://www.w3.org/2000/svg"  viewBox="0 0 100 100" width="200px" height="200px"><path d="M 63.5 11.03125 C 63.28225 11.03125 63.065266 11.102141 62.884766 11.244141 C 62.684766 11.400141 57.988281 15.138344 57.988281 20.277344 C 57.988281 22.238314 58.946804 23.971234 60.404297 25 L 17 25 C 16.447 25 16 25.448 16 26 L 16 69 L 7.8320312 69 C 5.8259711 69 4.09375 70.526676 4.09375 72.5 C 4.09375 74.473324 5.8259712 76 7.8320312 76 L 12.171875 76 C 12.491685 76.625571 13.080805 77.612953 14.449219 78.765625 C 16.403889 80.412125 19.684561 82 24.818359 82 L 75.226562 82 C 80.360842 82 83.643084 80.412158 85.597656 78.765625 C 86.964459 77.614229 87.550782 76.626221 87.871094 76 L 92.212891 76 C 94.218273 76 95.95 74.474309 95.951172 72.501953 L 95.951172 72.5 C 95.952857 70.526863 94.220227 69 92.214844 69 L 84 69 L 84 26 C 84 25.448 83.553 25 83 25 L 70.435547 25 C 70.506108 24.952104 70.581313 24.916596 70.650391 24.865234 C 74.720391 21.837234 75.011484 15.791156 75.021484 15.535156 C 75.040484 15.079156 74.7485 14.668109 74.3125 14.537109 C 74.1515 14.488109 70.579453 13.433281 67.064453 14.488281 C 65.747453 12.540281 64.227234 11.331141 64.115234 11.244141 C 63.934734 11.102141 63.71775 11.03125 63.5 11.03125 z M 63.5 13.369141 C 64.652 14.473141 67.013672 17.119344 67.013672 20.277344 C 67.013672 22.323344 65.437 23.988281 63.5 23.988281 C 61.563 23.988281 59.988281 22.323344 59.988281 20.277344 C 59.988281 17.120344 62.347 14.473141 63.5 13.369141 z M 70.833984 16.033203 C 71.681359 16.058703 72.420406 16.166578 72.941406 16.267578 C 72.724406 17.859578 71.972031 21.390719 69.457031 23.261719 C 68.921031 23.660719 68.317125 23.893844 67.703125 23.964844 C 68.518125 22.968844 69.013672 21.682344 69.013672 20.277344 C 69.013672 18.817344 68.627078 17.475969 68.080078 16.292969 C 69.030578 16.064969 69.986609 16.007703 70.833984 16.033203 z M 18 27 L 40 27 L 40 32.5 C 40 32.776 40.224 33 40.5 33 C 40.776 33 41 32.776 41 32.5 L 41 27 L 82 27 L 82 69 L 41 69 L 41 43.5 C 41 43.224 40.776 43 40.5 43 C 40.224 43 40 43.224 40 43.5 L 40 69 L 18 69 L 18 27 z M 40.5 36 C 40.224 36 40 36.224 40 36.5 L 40 39.5 C 40 39.776 40.224 40 40.5 40 C 40.776 40 41 39.776 41 39.5 L 41 36.5 C 41 36.224 40.776 36 40.5 36 z M 7.8320312 71 L 17 71 L 83 71 L 92.214844 71 C 93.234784 71 93.952313 71.710152 93.951172 72.498047 A 1.0001 1.0001 0 0 0 93.951172 72.5 C 93.951172 73.288676 93.23283 74 92.212891 74 L 87.535156 74 L 87.5 74 L 87.28125 74 L 40.5 74 A 0.50005 0.50005 0 1 0 40.5 75 L 86.175781 75 C 85.944745 75.449847 85.421116 76.297186 84.308594 77.234375 C 82.701916 78.587795 79.955285 80 75.226562 80 L 24.818359 80 C 20.090158 80 17.343158 78.587875 15.736328 77.234375 C 14.623701 76.297163 14.100142 75.44984 13.869141 75 L 29.439453 75 A 0.50005 0.50005 0 1 0 29.439453 74 L 12.783203 74 L 12.763672 74 L 12.587891 74 L 7.8320312 74 C 6.8120914 74 6.09375 73.288676 6.09375 72.5 C 6.09375 71.711324 6.8120915 71 7.8320312 71 z M 33.5 74 A 0.50005 0.50005 0 1 0 33.5 75 L 36.5 75 A 0.50005 0.50005 0 1 0 36.5 74 L 33.5 74 z"/></svg>