<svg fill="#000000" xmlns="http://www.w3.org/2000/svg"  viewBox="0 0 128 128" width="64px" height="64px"><path d="M54.9 33.2C54.9 33.2 54.9 33.2 54.9 33.2 54.9 33.2 55 33.2 54.9 33.2c.2.2.4.3.5.3.1 0 .1 0 .2.1.1.1.2.1.4.2.1 0 .2 0 .2.1.1 0 .2.1.3.1 0 0 0 0 .1 0 0 0 0 0 0 0 .1 0 .2 0 .3 0 .1 0 .1 0 .2 0 .1 0 .1 0 .2 0 .1 0 .2 0 .3-.1.1 0 .1 0 .2-.1.1 0 .2-.1.3-.1.1 0 .1-.1.2-.1.1-.1.2-.1.3-.2.1 0 .1-.1.2-.1.1-.1.2-.2.3-.3 0 0 0 0 .1-.1 0 0 0 0 0 0 .1-.2.2-.3.3-.5 0 0 0 0 0 0 .1-.2.2-.3.2-.5 0-.1 0-.2.1-.3 0-.1 0-.2.1-.3.4-3.5 1.9-6.6 4.2-9.2 2.3 2.5 3.8 5.6 4.2 9 .1 1.1.8 2 1.8 2.4.4.2.8.2 1.1.2.7 0 1.3-.2 1.9-.6 3.4-2.6 7.6-3.8 11.8-3.3 1.6.2 3.1-1 3.3-2.6.2-1.6-1-3.1-2.6-3.3-4.3-.5-8.6.2-12.4 2.1-1.3-4-3.8-7.5-7.2-10.2 0 0 0 0 0 0 0 0 0 0-.1-.1-.1 0-.1-.1-.2-.1-.1-.1-.2-.1-.3-.2-.1 0-.2-.1-.3-.1-.1 0-.2-.1-.3-.1-.1 0-.2 0-.3-.1-.1 0-.2 0-.3 0-.1 0-.2 0-.3 0-.1 0-.2 0-.3 0-.1 0-.2 0-.3 0-.1 0-.2 0-.3.1-.1 0-.2.1-.3.1-.1 0-.2.1-.3.1-.1.1-.2.1-.3.2-.1 0-.1.1-.2.1 0 0 0 0-.1.1 0 0 0 0-.1.1-3.4 2.7-5.9 6.3-7.2 10.3-3.9-2-8.2-2.8-12.7-2.2-1.4.2-2.4 1.2-2.6 2.6-.3 2.1-.2 4.2.1 6.3.2 1.5 1.5 2.5 3 2.5.2 0 .3 0 .5 0 1.6-.3 2.7-1.8 2.5-3.5-.1-.7-.2-1.4-.2-2.1C48.8 29.7 52.1 31 54.9 33.2 54.9 33.2 54.9 33.2 54.9 33.2zM28.5 64c.9 0 1.8-.4 2.4-1.2 3.9-5.4 9.7-9.1 16.3-10.3 1.6-.3 2.7-1.9 2.4-3.5-.3-1.6-1.9-2.7-3.5-2.4-8 1.5-15.2 6-20 12.7-1 1.3-.7 3.2.7 4.2C27.3 63.8 27.9 64 28.5 64zM25.3 69.7c-.2-.1-.3-.2-.5-.3-.2-.1-.4-.1-.6-.2-.4-.1-.8-.1-1.2 0-.2 0-.4.1-.6.2-.2.1-.4.2-.5.3-.2.1-.3.2-.5.4-.6.6-.9 1.3-.9 2.1 0 .2 0 .4.1.6 0 .2.1.4.2.6.1.2.2.3.3.5.1.2.2.3.4.5s.3.3.5.4c.2.1.3.2.5.3.2.1.4.1.6.2.2 0 .4.1.6.1s.4 0 .6-.1c.2 0 .4-.1.6-.2.2-.1.4-.2.5-.3.2-.1.3-.2.5-.4.1-.1.3-.3.4-.5.1-.2.2-.3.3-.5.1-.2.1-.4.2-.6 0-.2.1-.4.1-.6 0-.8-.3-1.6-.9-2.1C25.6 69.9 25.4 69.8 25.3 69.7z"/><path d="M21.2,101C28.4,108.6,38.5,113,49,113c2.4,0,4.9-0.2,7.3-0.7c5.1-1,10.4-1,15.5,0c2.4,0.5,4.8,0.7,7.3,0.7c10.5,0,20.6-4.4,27.8-12.1c7.3-7.8,10.9-17.9,10.1-28.6C115.6,53.3,99.6,37.8,80.5,37c-1.7,0-3,1.2-3.1,2.9c-0.1,1.7,1.2,3,2.9,3.1c8.3,0.3,15.9,4,21.5,9.6c1.5,3.8,2.3,8,2.3,12.4c0,19.3-7.2,36-30,36c-5,0-7.9-4.8-11-2.8c-5.6,3.5-11.9,6-19,4.8c-0.1,0-0.1,0-0.2,0c-2.8,0-4.6,1-5.1,2.3c-4.9-1.7-9.4-4.5-13-8.4c-6.1-6.5-9.1-15.1-8.5-24.1C18.2,56.7,31.6,43.7,47.7,43c3.5-0.1,7,0.3,10.3,1.3c0.9,0.3,1.7,0.4,2.5,0.6c2.2,0.5,4.6,1.1,9.5,3.5c1.5,0.7,3.3,0.1,4-1.4c0.7-1.5,0.1-3.3-1.4-4c-5.5-2.7-8.3-3.4-10.7-4c-0.7-0.2-1.4-0.3-2.2-0.6c-3.9-1.2-8.1-1.7-12.2-1.5c-19.1,0.7-35.1,16.3-36.4,35.3C10.4,83,14,93.2,21.2,101z"/></svg>